STARTFONT 2.1
COMMENT
COMMENT Converted from TrueType font "fonts-ttf\LiberationSans-Regular-webfont.ttf" by "TTF2BDF 2.6".
COMMENT
FONT -FreeType-Liberation Sans-Medium-R-Normal--51-370-100-100-P-220-ISO10646-1
SIZE 37 100 100
FONTBOUNDINGBOX 61 59 -10 -13
STARTPROPERTIES 20
FOUNDRY "FreeType"
FAMILY_NAME "Liberation Sans"
WEIGHT_NAME "Medium"
SLANT "R"
SETWIDTH_NAME "Normal"
ADD_STYLE_NAME ""
PIXEL_SIZE 51
POINT_SIZE 370
RESOLUTION_X 100
RESOLUTION_Y 100
SPACING "P"
AVERAGE_WIDTH 220
CHARSET_REGISTRY "ISO10646"
CHARSET_ENCODING "1"
FONT_ASCENT 46
FONT_DESCENT 16
COPYRIGHT "Digitized data © 2007 Ascender Corporation. All rights reserved."
_TTF_FONTFILE "fonts-ttf\LiberationSans-Regular-webfont.ttf"
_TTF_PSNAME "LiberationSans"
_XFREE86_GLYPH_RANGES "0 13 32_126 160_255 305 338_339 376 710 730 732 8192_8202 8208_8212 8216_8218 8220_8222 8226 8230 8239 8249_8250 8260 8287 8364 8482 57344"
ENDPROPERTIES
CHARS 232
STARTCHAR 0000
ENCODING 0
SWIDTH 992 0
DWIDTH 51 0
BBX 1 1 0 0
BITMAP
00
ENDCHAR
STARTCHAR 000D
ENCODING 13
SWIDTH 272 0
DWIDTH 14 0
BBX 1 1 0 0
BITMAP
00
ENDCHAR
STARTCHAR 0020
ENCODING 32
SWIDTH 272 0
DWIDTH 14 0
BBX 1 1 0 0
BITMAP
00
ENDCHAR
STARTCHAR 0021
ENCODING 33
SWIDTH 272 0
DWIDTH 14 0
BBX 5 36 5 0
BITMAP
F8
F8
F8
F0
F0
F0
F0
F0
F0
F0
F0
F0
F0
F0
F0
F0
F0
F0
F0
F0
F0
F0
F0
F0
F0
F0
00
00
00
00
00
F0
F0
F0
F0
F0
ENDCHAR
STARTCHAR 0022
ENCODING 34
SWIDTH 350 0
DWIDTH 18 0
BBX 14 11 2 24
BITMAP
F87C
F87C
F87C
F83C
F83C
F83C
F03C
703C
703C
7038
7038
ENDCHAR
STARTCHAR 0023
ENCODING 35
SWIDTH 544 0
DWIDTH 28 0
BBX 5 32 8 3
BITMAP
38
38
38
38
38
38
38
38
38
38
38
38
30
30
30
70
70
70
70
70
70
70
70
70
70
70
60
60
60
E0
E0
E0
ENDCHAR
STARTCHAR 0024
ENCODING 36
SWIDTH 544 0
DWIDTH 28 0
BBX 27 42 1 -4
BITMAP
000E0000
000E0000
000E0000
001F0000
03FFF000
0FFFFC00
1FFFFE00
3F0E7F00
3E0E1F80
7C0E0F80
7C0E0780
780E0780
780E0000
7C0E0000
7C0E0000
3F0E0000
3FCE0000
1FFE0000
0FFF8000
03FFF000
007FFC00
000FFF00
000EFF80
000E1F80
000E07C0
000E03C0
000E03C0
000E03E0
F00E03E0
F00E03C0
F80E03C0
7C0E07C0
7E0E0F80
3FCE7F80
1FFFFF00
0FFFFC00
03FFF000
000E0000
000E0000
000E0000
000E0000
000E0000
ENDCHAR
STARTCHAR 0025
ENCODING 37
SWIDTH 875 0
DWIDTH 45 0
BBX 42 35 2 0
BITMAP
0FF00003C000
3FF800078000
3E7C000F0000
783C000F0000
701E001E0000
F01E001E0000
F00E003C0000
F00E00780000
F00F00780000
F00F00F00000
E00F01E00000
E00F01E00000
F00F03C00000
F00E0783F800
F00E0787FC00
F01E0F0FFE00
701E1E1E0F00
781C1E1C0700
7C3C3C3C0780
3FF8783C0780
1FF0783C0380
07C0F0380380
0001E0380380
0001E03803C0
0003C03803C0
000780380380
000780380380
000F003C0380
001E003C0780
001E003C0780
003C001C0780
0038001E0F00
0078000FBE00
00F00007FE00
00E00003F800
ENDCHAR
STARTCHAR 0026
ENCODING 38
SWIDTH 661 0
DWIDTH 34 0
BBX 31 35 2 0
BITMAP
001FE000
007FF800
00FFFC00
01F03E00
01E01E00
01C01E00
03C00E00
03C00E00
03C01E00
03C01E00
01E03C00
01E0FC00
01E3F800
00FFE000
00FFC000
01FF0000
03F80000
0FFC0070
1FBC00F0
3E1E00F0
7C1F00F0
780F01E0
F80F81E0
F007C3C0
F003E3C0
F001E780
F001F780
F000FF00
F0007F00
F8003E00
7C007F00
7E01FFE0
3FFFF7FE
1FFFC3FE
07FF00FE
ENDCHAR
STARTCHAR 0027
ENCODING 39
SWIDTH 194 0
DWIDTH 10 0
BBX 4 11 3 24
BITMAP
F0
F0
F0
F0
F0
F0
F0
F0
F0
F0
F0
ENDCHAR
STARTCHAR 0028
ENCODING 40
SWIDTH 330 0
DWIDTH 17 0
BBX 14 48 3 -11
BITMAP
0078
00F0
01F0
03E0
03C0
07C0
0F80
0F00
1F00
1E00
1E00
3E00
3C00
7C00
7C00
7C00
7800
7800
F800
F800
F800
F800
F800
F800
F800
F800
F800
F800
F800
7800
7800
7800
7C00
7C00
3C00
3C00
3E00
1E00
1F00
0F00
0F80
0780
07C0
03C0
01E0
00F0
00F8
007C
ENDCHAR
STARTCHAR 0029
ENCODING 41
SWIDTH 330 0
DWIDTH 17 0
BBX 14 48 0 -11
BITMAP
7800
3C00
3E00
1E00
0F00
0F80
0780
03C0
03C0
03E0
01E0
01F0
00F0
00F0
00F8
00F8
0078
0078
0078
007C
007C
007C
007C
007C
007C
007C
007C
007C
007C
0078
0078
0078
00F8
00F8
00F0
01F0
01F0
01E0
03E0
03C0
07C0
0780
0F80
1F00
1E00
3C00
7C00
F800
ENDCHAR
STARTCHAR 002A
ENCODING 42
SWIDTH 389 0
DWIDTH 20 0
BBX 18 18 1 17
BITMAP
01E000
01E000
01E000
01E000
01E000
60C180
FCCFC0
FFFFC0
3FFF00
03F000
03F000
07F000
073800
0F3C00
1E1E00
3C1E00
1C0E00
000800
ENDCHAR
STARTCHAR 002B
ENCODING 43
SWIDTH 583 0
DWIDTH 30 0
BBX 25 25 2 4
BITMAP
001E0000
001E0000
001E0000
001E0000
001E0000
001E0000
001E0000
001E0000
001E0000
001E0000
FFFFFF80
FFFFFF80
FFFFFF80
FFFFFF80
001E0000
001E0000
001E0000
001E0000
001E0000
001E0000
001E0000
001E0000
001E0000
001E0000
001E0000
ENDCHAR
STARTCHAR 002C
ENCODING 44
SWIDTH 272 0
DWIDTH 14 0
BBX 5 12 5 -7
BITMAP
F8
F8
F8
F8
F8
38
30
30
70
70
E0
E0
ENDCHAR
STARTCHAR 002D
ENCODING 45
SWIDTH 330 0
DWIDTH 17 0
BBX 13 4 2 12
BITMAP
FFF8
FFF8
FFF8
FFF8
ENDCHAR
STARTCHAR 002E
ENCODING 46
SWIDTH 272 0
DWIDTH 14 0
BBX 5 5 5 0
BITMAP
F8
F8
F8
F8
F8
ENDCHAR
STARTCHAR 002F
ENCODING 47
SWIDTH 272 0
DWIDTH 14 0
BBX 14 38 0 -1
BITMAP
003C
003C
003C
0078
0078
0078
00F0
00F0
00F0
00F0
01E0
01E0
01E0
01E0
03C0
03C0
03C0
0780
0780
0780
0780
0F00
0F00
0F00
0F00
1E00
1E00
1E00
3C00
3C00
3C00
3C00
7800
7800
7800
7800
F000
F000
ENDCHAR
STARTCHAR 0030
ENCODING 48
SWIDTH 544 0
DWIDTH 28 0
BBX 24 36 2 0
BITMAP
001800
01FFC0
07FFE0
0FFFF0
1FC1F8
1F007C
3E007C
3C003E
7C003E
78001E
78001F
78001F
F8001F
F8000F
F8000F
F8000F
F8000F
F8000F
F8000F
F8000F
F8000F
F8000F
F8000F
F8000F
F8001F
78001F
78001F
7C001E
7C003E
3C003E
3E007C
1F00FC
1FC3F8
0FFFF0
07FFE0
01FF80
ENDCHAR
STARTCHAR 0031
ENCODING 49
SWIDTH 544 0
DWIDTH 28 0
BBX 22 35 4 0
BITMAP
00F800
01F800
07F800
0FF800
1F7800
7E7800
7C7800
707800
607800
007800
007800
007800
007800
007800
007800
007800
007800
007800
007800
007800
007800
007800
007800
007800
007800
007800
007800
007800
007800
007800
007800
FFFFFC
FFFFFC
FFFFFC
FFFFFC
ENDCHAR
STARTCHAR 0032
ENCODING 50
SWIDTH 544 0
DWIDTH 28 0
BBX 23 36 3 0
BITMAP
003800
03FF80
0FFFE0
1FFFF0
3F83F8
7E00F8
7C007C
F8007C
F8007C
F0003C
00003C
00003C
00007C
00007C
0000F8
0000F8
0001F0
0003E0
0007C0
000F80
003F00
007E00
00FC00
01F800
03E000
07C000
0F8000
1F0000
3E0000
7C0000
780000
F80000
FFFFFE
FFFFFE
FFFFFE
FFFFFE
ENDCHAR
STARTCHAR 0033
ENCODING 51
SWIDTH 544 0
DWIDTH 28 0
BBX 24 36 2 0
BITMAP
003C00
03FFC0
07FFF0
1FFFF8
3F81FC
3E007C
7C003E
7C003E
78003E
78001E
00001E
00003E
00003E
00003C
00007C
0001F8
00FFF0
00FFC0
00FFC0
00FFF0
0003FC
00007E
00003E
00001F
00001F
00001F
00001F
F8001F
F8001F
F8001F
7C003E
7E007E
3FC3FC
1FFFF8
0FFFF0
03FFC0
ENDCHAR
STARTCHAR 0034
ENCODING 52
SWIDTH 544 0
DWIDTH 28 0
BBX 26 35 1 0
BITMAP
0000F800
0001F800
0003F800
0003F800
0007F800
000F7800
000F7800
001E7800
003E7800
003C7800
00787800
00F87800
00F07800
01E07800
03E07800
03C07800
07807800
0F807800
0F007800
1E007800
3E007800
3C007800
78007800
F0007800
FFFFFFC0
FFFFFFC0
FFFFFFC0
00007800
00007800
00007800
00007800
00007800
00007800
00007800
00007800
ENDCHAR
STARTCHAR 0035
ENCODING 53
SWIDTH 544 0
DWIDTH 28 0
BBX 24 35 2 0
BITMAP
3FFFFC
3FFFFC
3FFFFC
3FFFFC
3C0000
3C0000
3C0000
3C0000
3C0000
3C0000
3C0000
7C0000
7C0000
7CFFC0
7FFFF0
7FFFF8
7FC3FC
7E00FE
7C003E
00003F
00001F
00001F
00001F
00000F
00000F
00001F
00001F
F8001F
F8003E
7C003E
7E007C
3F83FC
1FFFF8
0FFFE0
03FF80
ENDCHAR
STARTCHAR 0036
ENCODING 54
SWIDTH 544 0
DWIDTH 28 0
BBX 23 36 3 0
BITMAP
001800
01FF80
07FFE0
0FFFF0
1FC1F8
1F00F8
3E007C
3C003C
7C0000
780000
780000
F80000
F00000
F01E00
F1FFC0
F3FFE0
F7FFF0
FF01F8
FE00FC
FC007C
F8003E
F8003E
F8003E
F8003E
F8001E
F8001E
F8003E
78003E
78003E
7C003C
3E007C
3F00F8
1F83F8
0FFFF0
07FFE0
01FF80
ENDCHAR
STARTCHAR 0037
ENCODING 55
SWIDTH 544 0
DWIDTH 28 0
BBX 23 35 3 0
BITMAP
FFFFFE
FFFFFE
FFFFFE
FFFFFE
00003C
00007C
000078
0000F0
0001F0
0001E0
0003C0
0007C0
000780
000F80
000F00
001F00
001E00
003E00
003C00
007C00
007800
007800
00F800
00F000
00F000
01F000
01F000
01E000
01E000
03E000
03E000
03E000
03E000
03E000
03E000
ENDCHAR
STARTCHAR 0038
ENCODING 56
SWIDTH 544 0
DWIDTH 28 0
BBX 24 36 2 0
BITMAP
001C00
03FFC0
07FFF0
1FFFF8
1F00FC
3E007C
7C003E
7C003E
7C001E
7C001E
7C001E
7C003E
3C003E
3E003C
1F007C
1FC1F8
07FFF0
01FF80
07FFF0
1FC1F8
3E007C
7C003E
7C001E
78001F
F8001F
F8001F
F8001F
F8001F
F8001F
78001F
7C003E
7E003E
3F80FC
1FFFF8
0FFFF0
03FFC0
ENDCHAR
STARTCHAR 0039
ENCODING 57
SWIDTH 544 0
DWIDTH 28 0
BBX 24 36 2 0
BITMAP
001800
03FF80
07FFE0
0FFFF0
1F83F8
3F00F8
7E007C
7C003C
7C003E
78001E
F8001E
F8001E
F8001F
F8001F
78001F
78001F
7C003F
7C003F
3E007F
3F00FF
1FFFFF
0FFFDF
07FF1F
01FC1F
00001E
00001E
00003E
00003E
00003C
7C007C
3C00F8
3E01F8
1F83F0
1FFFE0
0FFFC0
03FF00
ENDCHAR
STARTCHAR 003A
ENCODING 58
SWIDTH 272 0
DWIDTH 14 0
BBX 5 27 5 0
BITMAP
F8
F8
F8
F8
F8
00
00
00
00
00
00
00
00
00
00
00
00
00
00
00
00
00
F8
F8
F8
F8
F8
ENDCHAR
STARTCHAR 003B
ENCODING 59
SWIDTH 272 0
DWIDTH 14 0
BBX 5 34 5 -7
BITMAP
F8
F8
F8
F8
F8
00
00
00
00
00
00
00
00
00
00
00
00
00
00
00
00
00
F8
F8
F8
F8
F8
38
30
30
70
70
E0
E0
ENDCHAR
STARTCHAR 003C
ENCODING 60
SWIDTH 583 0
DWIDTH 30 0
BBX 24 25 3 4
BITMAP
000007
00001F
00007F
0003FE
000FF8
007FE0
01FF00
07FC00
3FF000
FF8000
FE0000
F80000
F00000
FC0000
FF0000
7FE000
0FF800
03FE00
00FFC0
001FF0
0007FC
0000FF
00003F
00000F
000001
ENDCHAR
STARTCHAR 003D
ENCODING 61
SWIDTH 583 0
DWIDTH 30 0
BBX 25 16 2 9
BITMAP
FFFFFF80
FFFFFF80
FFFFFF80
FFFFFF80
00000000
00000000
00000000
00000000
00000000
00000000
00000000
00000000
00000000
FFFFFF80
FFFFFF80
FFFFFF80
ENDCHAR
STARTCHAR 003E
ENCODING 62
SWIDTH 583 0
DWIDTH 30 0
BBX 24 25 3 4
BITMAP
C00000
F80000
FE0000
FFC000
1FF000
07FC00
01FF80
003FE0
000FF8
0001FF
00007F
00001F
00000F
00003F
0000FF
0007FE
001FF0
007FC0
03FE00
0FF800
3FE000
FF0000
FC0000
F00000
800000
ENDCHAR
STARTCHAR 003F
ENCODING 63
SWIDTH 544 0
DWIDTH 28 0
BBX 24 36 2 0
BITMAP
001C00
01FFE0
07FFF8
1FFFFC
3FF3FE
3F007E
7E003F
7C001F
78000F
F8000F
F8000F
00000F
00000F
00001F
00001F
00003E
00007C
0001F8
0003F0
0007E0
000F80
001F00
003E00
003C00
007C00
007C00
007800
000000
000000
000000
000000
007C00
007C00
007C00
007C00
007C00
ENDCHAR
STARTCHAR 0040
ENCODING 64
SWIDTH 1011 0
DWIDTH 52 0
BBX 43 44 4 -7
BITMAP
00001FF80000
0001FFFF8000
0007FFFFE000
001FF00FF000
003F0001FC00
00FC00007E00
01F000001F00
03E000000F00
07C000000780
078000000380
0F003FC3C3C0
1E00FFF3C1C0
1E03FFF3C1E0
3C07E07BC1E0
3C07C01F80E0
380F800F80E0
781F000F80E0
781E000F80E0
701E000F80E0
F03C000F00E0
F03C000F00E0
F03C000F00E0
F03C000F00E0
F07C001E01E0
F07C001E01E0
F07C003E01C0
F03C003E03C0
F03C007E03C0
F03C00FE0780
F03E01DE0F00
701F07DE1F00
781FFF9FFE00
780FFF0FFC00
3C03FC07F000
3C0000000000
1E0000000000
1F0000000000
0F8000006000
07C00001F000
03F00007F000
01FF00FFE000
007FFFFF0000
001FFFFC0000
0003FFC00000
ENDCHAR
STARTCHAR 0041
ENCODING 65
SWIDTH 661 0
DWIDTH 34 0
BBX 34 35 0 0
BITMAP
0003F00000
0003F00000
0007F80000
0007F80000
0007FC0000
000F3C0000
000F3C0000
001F3E0000
001E1E0000
003E1F0000
003E0F0000
003C0F0000
007C0F8000
0078078000
00F807C000
00F807C000
00F003C000
01F003E000
01F001E000
03E001F000
03E001F000
03FFFFF000
07FFFFF800
07FFFFF800
0FFFFFFC00
0F80007C00
0F00003E00
1F00003E00
1F00001E00
3E00001F00
3E00001F00
3C00000F80
7C00000F80
7C00000F80
F8000007C0
ENDCHAR
STARTCHAR 0042
ENCODING 66
SWIDTH 661 0
DWIDTH 34 0
BBX 27 35 4 0
BITMAP
FFFFC000
FFFFF800
FFFFFE00
FFFFFF00
F8003F00
F8001F80
F8000F80
F8000F80
F8000F80
F8000F80
F8000F80
F8000F80
F8001F00
F8003F00
F800FE00
FFFFF800
FFFFE000
FFFFFC00
FFFFFF00
F8001F80
F80007C0
F80003E0
F80003E0
F80003E0
F80001E0
F80003E0
F80003E0
F80003E0
F80007E0
F80007C0
F8001FC0
FFFFFF80
FFFFFF00
FFFFFC00
FFFFE000
ENDCHAR
STARTCHAR 0043
ENCODING 67
SWIDTH 720 0
DWIDTH 37 0
BBX 32 36 3 0
BITMAP
0001E000
003FFF00
00FFFFC0
03FFFFE0
07FC1FF8
0FE003F8
1F8000FC
3F00007E
3E00003E
7E00001C
7C000000
7C000000
F8000000
F8000000
F8000000
F8000000
F0000000
F0000000
F0000000
F0000000
F8000000
F8000000
F8000000
F8000000
F8000000
7C000000
7C00001C
7E00001F
3F00003E
3F80007E
1FC000FC
0FF003F8
07FF3FF0
03FFFFE0
00FFFF80
003FFE00
ENDCHAR
STARTCHAR 0044
ENCODING 68
SWIDTH 720 0
DWIDTH 37 0
BBX 30 35 4 0
BITMAP
FFFFC000
FFFFF800
FFFFFE00
FFFFFF00
F8007FC0
F8000FE0
F80007E0
F80003F0
F80001F8
F80000F8
F80000F8
F800007C
F800007C
F800007C
F800007C
F800003C
F800003C
F800003C
F800003C
F800007C
F800007C
F800007C
F800007C
F800007C
F80000F8
F80000F8
F80001F0
F80003F0
F80007E0
F8000FC0
F8007F80
FFFFFF00
FFFFFE00
FFFFF800
FFFFC000
ENDCHAR
STARTCHAR 0045
ENCODING 69
SWIDTH 661 0
DWIDTH 34 0
BBX 28 35 4 0
BITMAP
FFFFFFE0
FFFFFFE0
FFFFFFE0
FFFFFFE0
F8000000
F8000000
F8000000
F8000000
F8000000
F8000000
F8000000
F8000000
F8000000
F8000000
F8000000
FFFFFF80
FFFFFF80
FFFFFF80
FFFFFF80
F8000000
F8000000
F8000000
F8000000
F8000000
F8000000
F8000000
F8000000
F8000000
F8000000
F8000000
F8000000
FFFFFFF0
FFFFFFF0
FFFFFFF0
FFFFFFF0
ENDCHAR
STARTCHAR 0046
ENCODING 70
SWIDTH 603 0
DWIDTH 31 0
BBX 25 35 4 0
BITMAP
FFFFFF80
FFFFFF80
FFFFFF80
FFFFFF80
F8000000
F8000000
F8000000
F8000000
F8000000
F8000000
F8000000
F8000000
F8000000
F8000000
F8000000
F8000000
F8000000
FFFFFF80
FFFFFF80
FFFFFF80
FFFFFF80
F8000000
F8000000
F8000000
F8000000
F8000000
F8000000
F8000000
F8000000
F8000000
F8000000
F8000000
F8000000
F8000000
F8000000
ENDCHAR
STARTCHAR 0047
ENCODING 71
SWIDTH 778 0
DWIDTH 40 0
BBX 33 36 3 0
BITMAP
0000E00000
003FFF0000
00FFFFE000
03FFFFF000
07FC1FF800
0FE001FC00
1F80007E00
3F00003E00
3E00001F00
7C00001800
7C00000000
FC00000000
F800000000
F800000000
F800000000
F800000000
F000000000
F000000000
F0003FFF80
F0003FFF80
F0003FFF80
F8003FFF80
F800000F80
F800000F80
F800000F80
7C00000F80
7C00000F80
7E00000F80
3F00000F80
1F00000F80
1FC0003F80
0FE000FF00
07FF1FFE00
03FFFFF800
00FFFFE000
003FFF0000
ENDCHAR
STARTCHAR 0048
ENCODING 72
SWIDTH 720 0
DWIDTH 37 0
BBX 29 35 4 0
BITMAP
F80000F8
F80000F8
F80000F8
F80000F8
F80000F8
F80000F8
F80000F8
F80000F8
F80000F8
F80000F8
F80000F8
F80000F8
F80000F8
F80000F8
F80000F8
FFFFFFF8
FFFFFFF8
FFFFFFF8
FFFFFFF8
F80000F8
F80000F8
F80000F8
F80000F8
F80000F8
F80000F8
F80000F8
F80000F8
F80000F8
F80000F8
F80000F8
F80000F8
F80000F8
F80000F8
F80000F8
F80000F8
ENDCHAR
STARTCHAR 0049
ENCODING 73
SWIDTH 272 0
DWIDTH 14 0
BBX 4 35 5 0
BITMAP
F0
F0
F0
F0
F0
F0
F0
F0
F0
F0
F0
F0
F0
F0
F0
F0
F0
F0
F0
F0
F0
F0
F0
F0
F0
F0
F0
F0
F0
F0
F0
F0
F0
F0
F0
ENDCHAR
STARTCHAR 004A
ENCODING 74
SWIDTH 505 0
DWIDTH 26 0
BBX 21 35 1 0
BITMAP
007FF8
007FF8
007FF8
007FF8
0000F8
0000F8
0000F8
0000F8
0000F8
0000F8
0000F8
0000F8
0000F8
0000F8
0000F8
0000F8
0000F8
0000F8
0000F8
0000F8
0000F8
0000F8
0000F8
0000F8
0000F8
0000F8
F800F8
F800F0
F801F0
7C01F0
7E03E0
3FDFE0
1FFFC0
0FFF80
07FE00
ENDCHAR
STARTCHAR 004B
ENCODING 75
SWIDTH 661 0
DWIDTH 34 0
BBX 29 35 4 0
BITMAP
F80007E0
F8000FC0
F8001F80
F8003F00
F8007E00
F800FC00
F801F800
F801F000
F803E000
F807C000
F80F8000
F81F0000
F83E0000
F87C0000
F8F80000
F9F80000
FBFC0000
FFFE0000
FFBE0000
FF1F0000
FC0F8000
F80FC000
F807E000
F803F000
F801F000
F800F800
F800FC00
F8007E00
F8003F00
F8001F80
F8000FC0
F80007C0
F80007E0
F80003F0
F80001F8
ENDCHAR
STARTCHAR 004C
ENCODING 76
SWIDTH 544 0
DWIDTH 28 0
BBX 23 35 4 0
BITMAP
F80000
F80000
F80000
F80000
F80000
F80000
F80000
F80000
F80000
F80000
F80000
F80000
F80000
F80000
F80000
F80000
F80000
F80000
F80000
F80000
F80000
F80000
F80000
F80000
F80000
F80000
F80000
F80000
F80000
F80000
F80000
FFFFFE
FFFFFE
FFFFFE
FFFFFE
ENDCHAR
STARTCHAR 004D
ENCODING 77
SWIDTH 817 0
DWIDTH 42 0
BBX 34 35 4 0
BITMAP
FE00000FC0
FE00000FC0
FE00001FC0
FF00001FC0
FF00003FC0
F780003FC0
F780003FC0
F780007BC0
F3C0007BC0
F3C0007BC0
F3C000F3C0
F1E000F3C0
F1E001F3C0
F1F001E3C0
F0F001E3C0
F0F003C3C0
F07803C3C0
F07803C3C0
F07C0783C0
F03C0783C0
F03C0F83C0
F03E0F03C0
F01E0F03C0
F01E1E03C0
F00F1E03C0
F00F1E03C0
F00F3C03C0
F007BC03C0
F007B803C0
F003F803C0
F003F803C0
F003F003C0
F001F003C0
F001F003C0
F001E003C0
ENDCHAR
STARTCHAR 004E
ENCODING 78
SWIDTH 720 0
DWIDTH 37 0
BBX 29 35 4 0
BITMAP
FC0000F8
FE0000F8
FE0000F8
FF0000F8
FF8000F8
FF8000F8
F7C000F8
F3C000F8
F3E000F8
F1F000F8
F0F000F8
F0F800F8
F07C00F8
F07C00F8
F03E00F8
F01F00F8
F01F00F8
F00F80F8
F00780F8
F007C0F8
F003E0F8
F003E0F8
F001F0F8
F000F8F8
F000F8F8
F0007CF8
F0003CF8
F0003E78
F0001F78
F0001F78
F0000FF8
F00007F8
F00007F8
F00003F8
F00001F8
ENDCHAR
STARTCHAR 004F
ENCODING 79
SWIDTH 778 0
DWIDTH 40 0
BBX 35 36 2 0
BITMAP
0000600000
001FFF8000
007FFFE000
01FFFFF800
03FE0FFC00
07F000FE00
0FC0007F00
1F80001F00
1F00001F80
3E00000F80
3E000007C0
7C000007C0
7C000003E0
7C000003E0
7C000003E0
78000003E0
F8000003E0
F8000003E0
F8000003E0
F8000003E0
78000003E0
78000003E0
7C000003E0
7C000003E0
7C000007C0
7E000007C0
3E000007C0
3F00000F80
1F00001F80
1F80001F00
0FC0007E00
07F000FE00
03FF1FFC00
01FFFFF000
007FFFE000
001FFF0000
ENDCHAR
STARTCHAR 0050
ENCODING 80
SWIDTH 661 0
DWIDTH 34 0
BBX 27 35 4 0
BITMAP
FFFFF000
FFFFFC00
FFFFFF00
FFFFFF80
F8001FC0
F80007C0
F80007E0
F80003E0
F80003E0
F80003E0
F80001E0
F80003E0
F80003E0
F80003E0
F80003E0
F80007C0
F8000FC0
F801FF80
FFFFFF00
FFFFFE00
FFFFF000
F8000000
F8000000
F8000000
F8000000
F8000000
F8000000
F8000000
F8000000
F8000000
F8000000
F8000000
F8000000
F8000000
F8000000
ENDCHAR
STARTCHAR 0051
ENCODING 81
SWIDTH 778 0
DWIDTH 40 0
BBX 35 46 2 -10
BITMAP
0000600000
001FFF8000
007FFFE000
01FFFFF800
03FE0FFC00
07F000FE00
0FC0007F00
1F80001F00
1F00001F80
3E00000F80
3E000007C0
7C000007C0
7C000003E0
7C000003E0
7C000003E0
78000003E0
F8000003E0
F8000003E0
F8000003E0
F8000003E0
F8000003E0
78000003E0
7C000003E0
7C000003E0
7C000007C0
7E000007C0
3E000007C0
3F00000F80
1F00001F80
1F80001F00
0FC0007E00
07F000FE00
03FF1FFC00
01FFFFF000
007FFFE000
001FFF0000
0000F80000
00007C0000
00007C0000
00007E0000
00003F0000
00003F8000
00001FFE00
00000FFE00
000003FE00
0000007800
ENDCHAR
STARTCHAR 0052
ENCODING 82
SWIDTH 720 0
DWIDTH 37 0
BBX 30 35 4 0
BITMAP
FFFFFC00
FFFFFF00
FFFFFFC0
FFFFFFE0
F80007F0
F80003F0
F80001F8
F80000F8
F80000F8
F80000F8
F80000F8
F80000F8
F80000F8
F80001F8
F80001F0
F80007F0
F8001FE0
FFFFFFC0
FFFFFF00
FFFFFC00
F800F800
F8007C00
F8007C00
F8003E00
F8003F00
F8001F00
F8000F80
F8000FC0
F80007C0
F80003E0
F80003E0
F80001F0
F80001F8
F80000F8
F800007C
ENDCHAR
STARTCHAR 0053
ENCODING 83
SWIDTH 661 0
DWIDTH 34 0
BBX 29 36 3 0
BITMAP
000F8000
01FFFC00
07FFFF00
0FFFFF80
1FC03FC0
3F0007E0
7E0003E0
7C0003F0
7C0001F0
7C000000
7C000000
7C000000
7E000000
3F000000
3FC00000
1FFC0000
0FFFC000
03FFFC00
00FFFF00
000FFFC0
0000FFE0
00000FE0
000003F0
000001F0
000000F8
000000F8
000000F8
F00000F8
F80000F0
F80001F0
FC0003F0
7F0007E0
3FF07FC0
1FFFFF80
0FFFFF00
01FFF800
ENDCHAR
STARTCHAR 0054
ENCODING 84
SWIDTH 603 0
DWIDTH 31 0
BBX 29 35 1 0
BITMAP
FFFFFFF8
FFFFFFF8
FFFFFFF8
FFFFFFF8
000F8000
000F8000
000F8000
000F8000
000F8000
000F8000
000F8000
000F8000
000F8000
000F8000
000F8000
000F8000
000F8000
000F8000
000F8000
000F8000
000F8000
000F8000
000F8000
000F8000
000F8000
000F8000
000F8000
000F8000
000F8000
000F8000
000F8000
000F8000
000F8000
000F8000
000F8000
ENDCHAR
STARTCHAR 0055
ENCODING 85
SWIDTH 720 0
DWIDTH 37 0
BBX 29 35 4 0
BITMAP
F80000F8
F80000F8
F80000F8
F80000F8
F80000F8
F80000F8
F80000F8
F80000F8
F80000F8
F80000F8
F80000F8
F80000F8
F80000F8
F80000F8
F80000F8
F80000F8
F80000F8
F80000F8
F80000F8
F80000F8
F80000F8
F80000F8
F80000F8
F80000F8
F80000F8
F80000F8
F80001F0
7C0001F0
7E0003E0
3E0007E0
3F801FC0
1FF0FF80
0FFFFF00
03FFFE00
00FFF000
ENDCHAR
STARTCHAR 0056
ENCODING 86
SWIDTH 661 0
DWIDTH 34 0
BBX 34 35 0 0
BITMAP
F8000007C0
7C00000F80
7C00000F80
3E00001F00
3E00001F00
1E00001F00
1F00003E00
1F00003E00
0F80007C00
0F80007C00
0780007800
07C000F800
07C000F800
03E001F000
03E001F000
01E001E000
01F003E000
01F003E000
00F807C000
00F807C000
0078078000
007C0F8000
007C0F8000
003C0F0000
003E1F0000
001E1E0000
001F3E0000
001F3E0000
000F3C0000
000FFC0000
0007F80000
0007F80000
0003F80000
0003F00000
0003F00000
ENDCHAR
STARTCHAR 0057
ENCODING 87
SWIDTH 934 0
DWIDTH 48 0
BBX 48 35 0 0
BITMAP
F80003E0001F
7C0007E0001F
7C0007E0003E
7C0007E0003E
3C0007F0003E
3E000FF0007C
3E000FF0007C
3E000F78007C
1F001E780078
1F001E7800F8
1F001E7800F8
0F001E3C00F8
0F803C3C01F0
0F803C3C01F0
07803C3C01F0
07C07C1E01E0
07C0781E03E0
07C0781E03E0
03C0781F03E0
03E0F80F03C0
03E0F00F07C0
01E0F00F07C0
01F0F0078780
01F1E0078F80
01F1E0078F80
00F1E0078F00
00F9E003CF00
00FBC003DF00
007BC003DF00
007BC003DE00
007B8001FE00
003F8001FE00
003F8001FC00
003F8000FC00
003F0000FC00
ENDCHAR
STARTCHAR 0058
ENCODING 88
SWIDTH 661 0
DWIDTH 34 0
BBX 32 35 1 0
BITMAP
3E00007E
3F00007C
1F0000F8
0F8001F0
07C003F0
07C003E0
03E007C0
01F00F80
01F00F80
00F81F00
007C3E00
003E3E00
003E7C00
001FF800
000FF000
0007F000
0007E000
0007F000
000FF000
001FF800
001F7C00
003E7C00
007C3E00
00781F00
00F81F80
01F00F80
03E007C0
03E003E0
07C003E0
0F8001F0
1F8000F8
1F0000F8
3E00007C
7C00003E
FC00003F
ENDCHAR
STARTCHAR 0059
ENCODING 89
SWIDTH 661 0
DWIDTH 34 0
BBX 31 35 2 0
BITMAP
F800007E
F800007C
7C0000F8
7E0001F8
3E0001F0
1F0003E0
1F8007E0
0F8007C0
07C00F80
07C00F80
03E01F00
01F03E00
01F03E00
00F87C00
007CF800
007CF800
003FF000
001FE000
001FE000
000FC000
00078000
00078000
00078000
00078000
00078000
00078000
00078000
00078000
00078000
00078000
00078000
00078000
00078000
00078000
00078000
ENDCHAR
STARTCHAR 005A
ENCODING 90
SWIDTH 603 0
DWIDTH 31 0
BBX 28 35 2 0
BITMAP
7FFFFFC0
7FFFFFC0
7FFFFFC0
7FFFFFC0
00000FC0
00000F80
00001F00
00003E00
00007C00
00007C00
0000F800
0001F000
0003E000
0007E000
0007C000
000F8000
001F0000
003F0000
003E0000
007C0000
00F80000
01F00000
01F00000
03E00000
07C00000
0F800000
1F800000
1F000000
3E000000
7C000000
FC000000
FFFFFFF0
FFFFFFF0
FFFFFFF0
FFFFFFF0
ENDCHAR
STARTCHAR 005B
ENCODING 91
SWIDTH 272 0
DWIDTH 14 0
BBX 10 48 4 -11
BITMAP
FFC0
FFC0
FFC0
F000
F000
F000
F000
F000
F000
F000
F000
F000
F000
F000
F000
F000
F000
F000
F000
F000
F000
F000
F000
F000
F000
F000
F000
F000
F000
F000
F000
F000
F000
F000
F000
F000
F000
F000
F000
F000
F000
F000
F000
F000
FFC0
FFC0
FFC0
FFC0
ENDCHAR
STARTCHAR 005C
ENCODING 92
SWIDTH 272 0
DWIDTH 14 0
BBX 14 38 0 -1
BITMAP
F000
F000
7800
7800
7800
7800
3C00
3C00
3C00
1E00
1E00
1E00
1E00
0F00
0F00
0F00
0F00
0780
0780
0780
03C0
03C0
03C0
03C0
01E0
01E0
01E0
01E0
00F0
00F0
00F0
0078
0078
0078
0078
003C
003C
003C
ENDCHAR
STARTCHAR 005D
ENCODING 93
SWIDTH 272 0
DWIDTH 14 0
BBX 11 48 0 -11
BITMAP
FFE0
FFE0
FFE0
03E0
03E0
03E0
03E0
03E0
03E0
03E0
03E0
03E0
03E0
03E0
03E0
03E0
03E0
03E0
03E0
03E0
03E0
03E0
03E0
03E0
03E0
03E0
03E0
03E0
03E0
03E0
03E0
03E0
03E0
03E0
03E0
03E0
03E0
03E0
03E0
03E0
03E0
03E0
03E0
03E0
FFE0
FFE0
FFE0
FFE0
ENDCHAR
STARTCHAR 005E
ENCODING 94
SWIDTH 467 0
DWIDTH 24 0
BBX 22 18 1 17
BITMAP
00FC00
00FC00
01FE00
01DE00
03CF00
038F00
078780
078780
0F03C0
0F03C0
1E01E0
1E01E0
3C00F0
3C00F0
780078
780078
F0003C
F0003C
ENDCHAR
STARTCHAR 005F
ENCODING 95
SWIDTH 544 0
DWIDTH 28 0
BBX 30 3 -1 -10
BITMAP
FFFFFFFC
FFFFFFFC
FFFFFFFC
ENDCHAR
STARTCHAR 0060
ENCODING 96
SWIDTH 330 0
DWIDTH 17 0
BBX 10 8 3 30
BITMAP
F800
FC00
7C00
3E00
0F00
0780
0380
01C0
ENDCHAR
STARTCHAR 0061
ENCODING 97
SWIDTH 544 0
DWIDTH 28 0
BBX 26 27 2 0
BITMAP
03FFC000
0FFFE000
1FFFF000
1F81F800
3E007C00
3E007C00
7C003C00
00003C00
00003C00
00003C00
00003C00
03FFFC00
0FFFFC00
3FFFFC00
3F003C00
7C003C00
7C003C00
F8003C00
F8007C00
F8007C00
F800FC00
F800FC00
7C03BE00
7E07BE00
7FFF3FC0
3FFE1FC0
0FF80FC0
ENDCHAR
STARTCHAR 0062
ENCODING 98
SWIDTH 544 0
DWIDTH 28 0
BBX 23 37 3 0
BITMAP
F80000
F80000
F80000
F80000
F80000
F80000
F80000
F80000
F80000
F80000
F87FC0
F9FFE0
FBFFF0
FF81F8
FF00FC
FE007C
FC003C
FC003E
F8003E
F8003E
F8003E
F8003E
F8003E
F8001E
F8003E
F8003E
F8003E
F8003E
F8003E
FC003E
FC003C
FC007C
FE00FC
FF81F8
FBFFF0
F9FFE0
F8FFC0
ENDCHAR
STARTCHAR 0063
ENCODING 99
SWIDTH 505 0
DWIDTH 26 0
BBX 22 27 2 0
BITMAP
01FF80
07FFC0
0FFFE0
1F83F0
3E00F8
3C0078
7C007C
78007C
780000
F80000
F80000
F80000
F80000
F80000
F80000
F80000
F80000
F80000
780000
7C007C
7C007C
3E007C
3E00F8
1F83F0
0FFFF0
07FFC0
01FF80
ENDCHAR
STARTCHAR 0064
ENCODING 100
SWIDTH 544 0
DWIDTH 28 0
BBX 23 37 2 0
BITMAP
00003E
00003E
00003E
00003E
00003E
00003E
00003E
00003E
00003E
00003E
03FE3E
0FFF3E
1FFFBE
3F01FE
3E00FE
7C007E
7C007E
78003E
78003E
F8003E
F8003E
F8003E
F8003E
F8003E
F8003E
F8003E
F8003E
F8003E
F8003E
78003E
7C007E
7C007E
3E00FE
3F03DE
1FFF9E
0FFF1E
07FE1E
ENDCHAR
STARTCHAR 0065
ENCODING 101
SWIDTH 544 0
DWIDTH 28 0
BBX 24 27 2 0
BITMAP
01FF80
07FFE0
0FFFF8
1F81F8
3F007C
3E003E
7C003E
7C001E
78001F
F8001F
F8001F
FFFFFF
FFFFFF
FFFFFF
F80000
F80000
F80000
F80000
780000
7C0000
7C0018
3E001E
3F003E
1F80FC
0FFFF8
07FFF0
01FFC0
ENDCHAR
STARTCHAR 0066
ENCODING 102
SWIDTH 272 0
DWIDTH 14 0
BBX 13 37 1 0
BITMAP
01F8
07F8
07F8
0FF8
0F80
0F00
1F00
1F00
1F00
1F00
FFF8
FFF8
FFF8
1F00
1F00
1F00
1F00
1F00
1F00
1F00
1F00
1F00
1F00
1F00
1F00
1F00
1F00
1F00
1F00
1F00
1F00
1F00
1F00
1F00
1F00
1F00
1F00
ENDCHAR
STARTCHAR 0067
ENCODING 103
SWIDTH 544 0
DWIDTH 28 0
BBX 23 38 2 -11
BITMAP
03FC1E
0FFF1E
1FFF9E
3F83DE
3E01DE
7C00FE
7C007E
78007E
78003E
F8003E
F8003E
F8003E
F8003E
F8003E
F8003E
F8003E
F8003E
F8003E
F8003E
78007E
7C007E
7C00FE
3E01FE
3F87FE
1FFFBE
0FFF3E
03FC3E
00003E
00003E
00003E
0C003C
7C007C
3E007C
3F01F8
1FFFF0
0FFFE0
03FFC0
001800
ENDCHAR
STARTCHAR 0068
ENCODING 104
SWIDTH 544 0
DWIDTH 28 0
BBX 21 37 4 0
BITMAP
F00000
F00000
F00000
F00000
F00000
F00000
F00000
F00000
F00000
F00000
F0FF80
F3FFE0
F7FFF0
F703F0
FE01F0
FC00F8
F800F8
F800F8
F000F8
F00078
F00078
F00078
F00078
F00078
F00078
F00078
F00078
F00078
F00078
F00078
F00078
F00078
F00078
F00078
F00078
F00078
F00078
ENDCHAR
STARTCHAR 0069
ENCODING 105
SWIDTH 214 0
DWIDTH 11 0
BBX 5 37 3 0
BITMAP
F8
F8
F8
F8
00
00
00
00
00
00
F8
F8
F8
F8
F8
F8
F8
F8
F8
F8
F8
F8
F8
F8
F8
F8
F8
F8
F8
F8
F8
F8
F8
F8
F8
F8
F8
ENDCHAR
STARTCHAR 006A
ENCODING 106
SWIDTH 214 0
DWIDTH 11 0
BBX 9 48 -1 -11
BITMAP
0F80
0F80
0F80
0F80
0000
0000
0000
0000
0000
0000
0F80
0F80
0F80
0F80
0F80
0F80
0F80
0F80
0F80
0F80
0F80
0F80
0F80
0F80
0F80
0F80
0F80
0F80
0F80
0F80
0F80
0F80
0F80
0F80
0F80
0F80
0F80
0F80
0F80
0F80
0F80
0F80
0F80
1F80
FF00
FF00
FE00
7000
ENDCHAR
STARTCHAR 006B
ENCODING 107
SWIDTH 505 0
DWIDTH 26 0
BBX 22 37 3 0
BITMAP
F80000
F80000
F80000
F80000
F80000
F80000
F80000
F80000
F80000
F80000
F800FC
F801F8
F801F0
F803E0
F807C0
F80F80
F81F00
F83E00
F87C00
F8F800
F9F000
FBE000
FFF000
FFF000
FFF800
FE7C00
FC3E00
F83E00
F81F00
F80F80
F807C0
F807C0
F803E0
F801F0
F801F8
F800F8
F8007C
ENDCHAR
STARTCHAR 006C
ENCODING 108
SWIDTH 214 0
DWIDTH 11 0
BBX 5 37 3 0
BITMAP
F8
F8
F8
F8
F8
F8
F8
F8
F8
F8
F8
F8
F8
F8
F8
F8
F8
F8
F8
F8
F8
F8
F8
F8
F8
F8
F8
F8
F8
F8
F8
F8
F8
F8
F8
F8
F8
ENDCHAR
STARTCHAR 006D
ENCODING 109
SWIDTH 817 0
DWIDTH 42 0
BBX 36 27 3 0
BITMAP
F87F80FF80
F9FFC1FFC0
FBFFE3FFE0
FB83F707E0
7E01FE01F0
7C00FC01F0
7C00F801F0
7C00F800F0
7800F800F0
7800F800F0
7800F800F0
7800F800F0
7800F800F0
7800F800F0
7800F800F0
7800F800F0
7800F800F0
7800F800F0
7800F800F0
7800F800F0
7800F800F0
7800F800F0
7800F800F0
7800F800F0
7800F800F0
7800F800F0
7800F800F0
ENDCHAR
STARTCHAR 006E
ENCODING 110
SWIDTH 544 0
DWIDTH 28 0
BBX 22 27 3 0
BITMAP
F87FC0
F9FFF0
FBFFF8
FB81F8
7F00F8
7E007C
7C007C
7C007C
78007C
78003C
78003C
78003C
78003C
78003C
78003C
78003C
78003C
78003C
78003C
78003C
78003C
78003C
78003C
78003C
78003C
78003C
78003C
ENDCHAR
STARTCHAR 006F
ENCODING 111
SWIDTH 544 0
DWIDTH 28 0
BBX 24 27 2 0
BITMAP
01FFC0
07FFF0
0FFFF8
1F80FC
3E007C
3E003E
7C003E
7C001F
78001F
F8001F
F8001F
F8001F
F8001F
F8000F
F8001F
F8001F
F8001F
F8001F
78001F
7C001E
7C003E
3E003E
3E007C
1F80FC
0FFFF8
07FFE0
01FFC0
ENDCHAR
STARTCHAR 0070
ENCODING 112
SWIDTH 544 0
DWIDTH 28 0
BBX 23 38 3 -11
BITMAP
F87FC0
F9FFE0
FBFFF0
FF81F8
FF00FC
FE007C
FC003C
FC003E
F8003E
F8003E
F8003E
F8003E
F8003E
F8001E
F8003E
F8003E
F8003E
F8003E
F8003E
FC003E
FC003C
FC007C
FE00FC
FF81F8
FBFFF0
F9FFE0
F8FFC0
F80000
F80000
F80000
F80000
F80000
F80000
F80000
F80000
F80000
F80000
F80000
ENDCHAR
STARTCHAR 0071
ENCODING 113
SWIDTH 544 0
DWIDTH 28 0
BBX 23 38 2 -11
BITMAP
03FE1E
0FFF1E
1FFF9E
3F03FE
3E00FE
7C007E
7C007E
7C003E
78003E
F8003E
F8003E
F8003E
F8003E
F8003E
F8003E
F8003E
F8003E
F8003E
78003E
78003E
7C007E
7C007E
3E00FE
3F83FE
1FFFBE
0FFF3E
07FE3E
00003E
00003E
00003E
00003E
00003E
00003E
00003E
00003E
00003E
00003E
00003E
ENDCHAR
STARTCHAR 0072
ENCODING 114
SWIDTH 330 0
DWIDTH 17 0
BBX 13 27 3 0
BITMAP
F8F8
F9F8
FBF8
FBF8
7F00
7E00
7C00
7C00
7C00
7800
7800
7800
7800
7800
7800
7800
7800
7800
7800
7800
7800
7800
7800
7800
7800
7800
7800
ENDCHAR
STARTCHAR 0073
ENCODING 115
SWIDTH 505 0
DWIDTH 26 0
BBX 22 27 2 0
BITMAP
07FF00
1FFFC0
3FFFE0
7E03F0
7C00F8
780078
F80060
F80000
780000
7C0000
7F8000
3FF800
1FFF00
07FFC0
00FFF0
000FF0
0001F8
0000F8
00007C
00007C
F0007C
F00078
F800F8
7E01F8
7FFFF0
3FFFE0
0FFF80
ENDCHAR
STARTCHAR 0074
ENCODING 116
SWIDTH 272 0
DWIDTH 14 0
BBX 13 33 1 0
BITMAP
0E00
0E00
0E00
0E00
1E00
1E00
FFF0
FFF0
FFF0
1E00
1E00
1E00
1E00
1E00
1E00
1E00
1E00
1E00
1E00
1E00
1E00
1E00
1E00
1E00
1E00
1E00
1E00
1E00
1F00
1F80
1FF8
0FF8
07F8
ENDCHAR
STARTCHAR 0075
ENCODING 117
SWIDTH 544 0
DWIDTH 28 0
BBX 22 27 3 0
BITMAP
F8007C
F8007C
F8007C
F8007C
F8007C
F8007C
F8007C
F8007C
F8007C
F8007C
F8007C
F8007C
F8007C
F8007C
F8007C
F8007C
F8007C
F8007C
F8007C
F8007C
F800FC
7800FC
7C01BC
7E07BC
3FFF3C
1FFE3C
0FFC3C
ENDCHAR
STARTCHAR 0076
ENCODING 118
SWIDTH 505 0
DWIDTH 26 0
BBX 25 27 0 0
BITMAP
F8000F80
78000F80
7C000F00
7C001F00
3C001F00
3E001E00
1E003E00
1E003E00
1F003C00
0F007C00
0F007800
0F807800
0780F800
0780F000
07C0F000
03C1F000
03C1E000
01E3E000
01E3C000
01E3C000
00F7C000
00F78000
00F78000
007F8000
007F0000
007F0000
003E0000
ENDCHAR
STARTCHAR 0077
ENCODING 119
SWIDTH 720 0
DWIDTH 37 0
BBX 37 27 0 0
BITMAP
F000F800F8
F800F800F8
7801F800F0
7801FC00F0
7801DC01F0
7C01DC01E0
3C03DC01E0
3C03DE01E0
3C039E03E0
1E038E03C0
1E078E03C0
1E078F03C0
1E070F0780
0F0F070780
0F0F078780
0F0F078780
070E078F00
079E038F00
079E03CF00
079E03CE00
039C03DE00
03FC01DE00
03FC01DE00
03FC01FC00
01F801FC00
01F800FC00
01F800F800
ENDCHAR
STARTCHAR 0078
ENCODING 120
SWIDTH 505 0
DWIDTH 26 0
BBX 24 27 1 0
BITMAP
F8003E
7C007C
3E007C
3E00F8
1F00F0
0F01F0
0783E0
07C3C0
03C780
01EF80
01FF00
00FE00
007E00
007E00
00FE00
00FF00
01EF80
03E780
07C7C0
0783E0
0F81E0
1F01F0
1E00F8
3E0078
7C007C
78003E
F8001F
ENDCHAR
STARTCHAR 0079
ENCODING 121
SWIDTH 505 0
DWIDTH 26 0
BBX 25 38 0 -11
BITMAP
F8000F80
78000F80
7C000F00
3C001F00
3E001F00
3E001E00
1E003E00
1F003E00
1F003C00
0F007C00
0F807800
07807800
07C0F800
07C0F000
03C0F000
03E1E000
01E1E000
01E1E000
01F3C000
00F3C000
00F3C000
007F8000
007F8000
007F0000
003F0000
003F0000
001E0000
001E0000
003C0000
003C0000
007C0000
00F80000
00F80000
03F00000
3FE00000
3FC00000
3F800000
1C000000
ENDCHAR
STARTCHAR 007A
ENCODING 122
SWIDTH 505 0
DWIDTH 26 0
BBX 23 27 1 0
BITMAP
7FFFFC
7FFFFC
7FFFFC
7FFFFC
0000F8
0001F0
0003E0
0007C0
0007C0
000F80
001F00
003E00
007C00
00FC00
00F800
01F000
03E000
07C000
0F8000
0F8000
1F0000
3E0000
7C0000
F80000
FFFFFE
FFFFFE
FFFFFE
ENDCHAR
STARTCHAR 007B
ENCODING 123
SWIDTH 330 0
DWIDTH 17 0
BBX 15 48 1 -11
BITMAP
007E
01FE
03FE
03F0
03C0
07C0
07C0
0780
0780
0780
0780
0780
0780
0780
0780
0780
0780
0780
0780
0780
0F80
1F00
FE00
F800
FC00
FF00
1F00
0F80
0780
0780
0780
0780
0780
0780
0780
0780
0780
0780
0780
0780
0780
07C0
07C0
03E0
03FE
01FE
00FE
001E
ENDCHAR
STARTCHAR 007C
ENCODING 124
SWIDTH 252 0
DWIDTH 13 0
BBX 4 48 5 -11
BITMAP
F0
F0
F0
F0
F0
F0
F0
F0
F0
F0
F0
F0
F0
F0
F0
F0
F0
F0
F0
F0
F0
F0
F0
F0
F0
F0
F0
F0
F0
F0
F0
F0
F0
F0
F0
F0
F0
F0
F0
F0
F0
F0
F0
F0
F0
F0
F0
F0
ENDCHAR
STARTCHAR 007D
ENCODING 125
SWIDTH 330 0
DWIDTH 17 0
BBX 15 48 1 -11
BITMAP
FC00
FF00
FF00
1F80
0780
07C0
07C0
03C0
03C0
03C0
03C0
03C0
03C0
03C0
03C0
03C0
03C0
03C0
03C0
03C0
03E0
01F0
00FE
003E
007E
01FE
01F0
03E0
03C0
03C0
03C0
03C0
03C0
03C0
03C0
03C0
03C0
03C0
03C0
03C0
07C0
07C0
0780
0F80
FF80
FF00
FE00
F000
ENDCHAR
STARTCHAR 007E
ENCODING 126
SWIDTH 583 0
DWIDTH 30 0
BBX 26 6 2 14
BITMAP
1FE00000
7FFC00C0
FFFF83C0
F8FFFFC0
C00FFF80
0001FE00
ENDCHAR
STARTCHAR 00A0
ENCODING 160
SWIDTH 272 0
DWIDTH 14 0
BBX 1 1 0 0
BITMAP
00
ENDCHAR
STARTCHAR 00A1
ENCODING 161
SWIDTH 330 0
DWIDTH 17 0
BBX 5 35 6 -8
BITMAP
F8
F8
F8
F8
F8
00
00
00
00
00
70
70
70
70
F0
F0
F0
F0
F8
F8
F8
F8
F8
F8
F8
F8
F8
F8
F8
F8
F8
F8
F8
F8
F8
ENDCHAR
STARTCHAR 00A2
ENCODING 162
SWIDTH 544 0
DWIDTH 28 0
BBX 22 36 3 -1
BITMAP
003800
003800
003800
003800
01FF80
07FFC0
0FFFF0
1FC3F0
3F00F8
3E007C
7C007C
7C007C
780000
780000
780000
F80000
F80000
F80000
F80000
F80000
780000
780000
7C0000
7C003C
7C007C
3E007C
3F00F8
1F81F8
0FFFF0
07FFE0
03FF80
003C00
003800
003800
003800
003800
ENDCHAR
STARTCHAR 00A3
ENCODING 163
SWIDTH 544 0
DWIDTH 28 0
BBX 26 36 1 0
BITMAP
00030000
003FF000
00FFFC00
01FFFE00
03F87F00
03E01F00
03C00E00
07C00000
07C00000
07C00000
07C00000
07C00000
07C00000
07C00000
07C00000
07C00000
07C00000
FFFFF000
FFFFF000
FFFFF000
07C00000
07C00000
07C00000
07C00000
07C00000
07800000
07800000
07800000
0F8003C0
0F0003C0
1E0007C0
3C000FC0
7FFFFF80
7FFFFF00
7FFFFE00
7FFFF800
ENDCHAR
STARTCHAR 00A4
ENCODING 164
SWIDTH 544 0
DWIDTH 28 0
BBX 22 22 3 6
BITMAP
20FC18
73FFBC
FFFFFC
7FFFF8
3F83F0
3E00F8
7C0078
78007C
78003C
F0003C
F0003C
F0003C
F0003C
78003C
780078
7C00F8
3E01F8
3F87F0
7FFFF8
FFFFFC
73FF3C
607C18
ENDCHAR
STARTCHAR 00A5
ENCODING 165
SWIDTH 544 0
DWIDTH 28 0
BBX 28 35 0 0
BITMAP
F80001F0
7C0001F0
3C0003E0
3E0007C0
1F0007C0
1F000F80
0F800F00
07801F00
07C03E00
03C03E00
03E07C00
01F07800
00F0F800
00F8F000
0079F000
007FE000
003FC000
3FFFFFC0
3FFFFFC0
3FFFFFC0
000F0000
000F0000
000F0000
000F0000
3FFFFFC0
3FFFFFC0
3FFFFFC0
000F0000
000F0000
000F0000
000F0000
000F0000
000F0000
000F0000
000F0000
ENDCHAR
STARTCHAR 00A6
ENCODING 166
SWIDTH 252 0
DWIDTH 13 0
BBX 4 48 5 -11
BITMAP
F0
F0
F0
F0
F0
F0
F0
F0
F0
F0
F0
F0
F0
F0
F0
F0
F0
F0
F0
00
00
00
00
00
00
00
00
00
F0
F0
F0
F0
F0
F0
F0
F0
F0
F0
F0
F0
F0
F0
F0
F0
F0
F0
F0
F0
ENDCHAR
STARTCHAR 00A7
ENCODING 167
SWIDTH 544 0
DWIDTH 28 0
BBX 22 41 3 -4
BITMAP
01FF00
07FFC0
1FFFF0
3F83F8
3E00F8
3C007C
78003C
780000
7C0000
3C0000
3F0000
1FE000
0FFE00
03FFC0
0FFFE0
1F0FF8
3E01F8
7C007C
78003C
78003C
78001C
78003C
7C003C
3E007C
3FC0F8
0FFFF0
07FFC0
00FFE0
001FF0
0001F8
00007C
00003C
00003C
00003C
F0003C
F8003C
78007C
7E01F8
3FFFF0
1FFFE0
07FF80
ENDCHAR
STARTCHAR 00A8
ENCODING 168
SWIDTH 330 0
DWIDTH 17 0
BBX 14 5 1 30
BITMAP
F03C
F03C
F03C
F03C
F03C
ENDCHAR
STARTCHAR 00A9
ENCODING 169
SWIDTH 739 0
DWIDTH 38 0
BBX 36 36 1 0
BITMAP
0000E00000
000FFF0000
007FFFC000
00F801F000
03E0007800
0780001C00
0F00000E00
1E00000700
1C03FC0380
380FFF0180
301F9F81C0
703C0380C0
607801C0E0
E070018060
E070000060
C0F0000070
C0F0000070
C0E0000070
C0E0000070
C0E0000070
C0F0000070
C0F0000070
E070000060
E07801E060
603801C0E0
703C0780C0
301FFF81C0
380FFE0180
1C03FC0380
0E00000700
0F00000E00
0780003C00
01E0007800
00FC03F000
003FFFC000
000FFE0000
ENDCHAR
STARTCHAR 00AA
ENCODING 170
SWIDTH 369 0
DWIDTH 19 0
BBX 18 20 1 16
BITMAP
018000
1FF800
3FFC00
7C1E00
781E00
700E00
000E00
000E00
03FE00
3FFE00
7FFE00
F80E00
F00E00
E00E00
E01E00
F03E00
F07F00
FFEFC0
7FC7C0
0F0180
ENDCHAR
STARTCHAR 00AB
ENCODING 171
SWIDTH 544 0
DWIDTH 28 0
BBX 24 19 2 4
BITMAP
00F01F
01F03E
03E07C
07C0F8
0F80F8
1F01F0
3E03E0
7C07C0
F80F80
F00F00
F80F80
7C07C0
3E03C0
1F01E0
0F81F0
07C0F8
03E07C
01E03E
00F01F
ENDCHAR
STARTCHAR 00AC
ENCODING 172
SWIDTH 583 0
DWIDTH 30 0
BBX 25 15 2 4
BITMAP
FFFFFF80
FFFFFF80
FFFFFF80
FFFFFF80
00000380
00000380
00000380
00000380
00000380
00000380
00000380
00000380
00000380
00000380
00000380
ENDCHAR
STARTCHAR 00AD
ENCODING 173
SWIDTH 330 0
DWIDTH 17 0
BBX 13 4 2 12
BITMAP
FFF8
FFF8
FFF8
FFF8
ENDCHAR
STARTCHAR 00AE
ENCODING 174
SWIDTH 739 0
DWIDTH 38 0
BBX 36 36 1 0
BITMAP
0000E00000
000FFF0000
007FFFC000
00F801F000
03E0007800
0780001C00
0F00000E00
1E00000700
1C1FF80380
381FFE0180
301FFF01C0
701C0780C0
601C0380E0
E01C03C060
E01C03C060
C01C038070
C01C038070
C01C078070
C01FFF0070
C01FFE0070
C01C380070
C01C3C0070
E01C1C0060
E01C0E0060
601C0F00E0
701C0700C0
301C0781C0
381C03C180
1C1C01C380
0E00000700
0F00000E00
0780003C00
01E0007800
00FC03F000
003FFFC000
000FFE0000
ENDCHAR
STARTCHAR 00AF
ENCODING 175
SWIDTH 544 0
DWIDTH 28 0
BBX 29 3 0 36
BITMAP
FFFFFFF8
FFFFFFF8
FFFFFFF8
ENDCHAR
STARTCHAR 00B0
ENCODING 176
SWIDTH 389 0
DWIDTH 20 0
BBX 14 15 3 21
BITMAP
0300
1FE0
3FF0
7878
703C
E01C
E00C
E00C
E01C
E01C
703C
7878
3FF0
1FE0
0300
ENDCHAR
STARTCHAR 00B1
ENCODING 177
SWIDTH 544 0
DWIDTH 28 0
BBX 24 30 2 0
BITMAP
003C00
003C00
003C00
003C00
003C00
003C00
003C00
003C00
003C00
FFFFFF
FFFFFF
FFFFFF
FFFFFF
003C00
003C00
003C00
003C00
003C00
003C00
003C00
003C00
003C00
003C00
000000
000000
000000
FFFFFF
FFFFFF
FFFFFF
FFFFFF
ENDCHAR
STARTCHAR 00B2
ENCODING 178
SWIDTH 330 0
DWIDTH 17 0
BBX 15 21 1 14
BITMAP
0FF0
3FF8
7C7C
781C
F01E
F01E
001E
001C
003C
0078
00F0
01E0
07C0
0F80
1E00
3C00
7800
F000
FFFE
FFFE
FFFE
ENDCHAR
STARTCHAR 00B3
ENCODING 179
SWIDTH 330 0
DWIDTH 17 0
BBX 15 21 1 14
BITMAP
1FF0
3FF8
7C7C
703C
F01C
301C
001C
003C
0078
07F0
07F0
07F8
003C
001E
000E
600E
E01E
F01E
7C7C
3FF8
1FF0
ENDCHAR
STARTCHAR 00B4
ENCODING 180
SWIDTH 330 0
DWIDTH 17 0
BBX 10 8 2 30
BITMAP
07C0
0FC0
0F80
1F00
3C00
7800
7000
E000
ENDCHAR
STARTCHAR 00B5
ENCODING 181
SWIDTH 564 0
DWIDTH 29 0
BBX 25 38 3 -11
BITMAP
F8007C00
F8007C00
F8007C00
F8007C00
F8007C00
F8007C00
F8007C00
F8007C00
F8007C00
F8007C00
F8007C00
F8007C00
F8007C00
F8007C00
F8007C00
F8007C00
F8007C00
F8007C00
F8007C00
F8007C00
F800FC00
FC00FC00
FC01FC00
FF07BE00
FFFF3F80
FFFE3F80
FBFC1F80
F8000000
F8000000
F8000000
F8000000
F8000000
F8000000
F8000000
F8000000
F8000000
F8000000
F8000000
ENDCHAR
STARTCHAR 00B6
ENCODING 182
SWIDTH 525 0
DWIDTH 27 0
BBX 23 42 2 -7
BITMAP
07FFFE
1FFFFE
3FF070
7FF070
7FF070
FFF070
FFF070
FFF070
FFF070
FFF070
FFF070
FFF070
7FF070
7FF070
3FF070
3FF070
0FF070
01F070
007070
007070
007070
007070
007070
007070
007070
007070
007070
007070
007070
007070
007070
007070
007070
007070
007070
007070
007070
007070
007070
007070
007070
007070
ENDCHAR
STARTCHAR 00B7
ENCODING 183
SWIDTH 272 0
DWIDTH 14 0
BBX 5 6 5 11
BITMAP
F8
F8
F8
F8
F8
F8
ENDCHAR
STARTCHAR 00B8
ENCODING 184
SWIDTH 330 0
DWIDTH 17 0
BBX 9 11 3 -11
BITMAP
3800
3800
3000
7F00
5F80
0780
0380
0780
FF00
FF00
F800
ENDCHAR
STARTCHAR 00B9
ENCODING 185
SWIDTH 330 0
DWIDTH 17 0
BBX 14 21 2 14
BITMAP
0780
1F80
7F80
F780
E780
8780
0780
0780
0780
0780
0780
0780
0780
0780
0780
0780
0780
0780
FFFC
FFFC
FFFC
ENDCHAR
STARTCHAR 00BA
ENCODING 186
SWIDTH 369 0
DWIDTH 19 0
BBX 17 20 1 16
BITMAP
03C000
0FF800
3FFE00
7C1E00
780F00
F00700
F00780
F00780
F00780
E00780
E00780
E00780
F00780
F00780
F00700
780F00
7C1E00
3FFE00
1FF800
03E000
ENDCHAR
STARTCHAR 00BB
ENCODING 187
SWIDTH 544 0
DWIDTH 28 0
BBX 24 19 2 4
BITMAP
F80F80
7C07C0
3E03E0
1F01E0
0F81F0
07C0F8
03E07C
01E03E
01F01F
00F80F
00F81F
01F03E
03E07C
07C078
0F80F8
1F01F0
3E03E0
7C07C0
F80F80
ENDCHAR
STARTCHAR 00BC
ENCODING 188
SWIDTH 836 0
DWIDTH 43 0
BBX 39 35 1 0
BITMAP
0780000780
1F80000700
3F80000F00
7B80001E00
6380001C00
4380003C00
0380007800
0380007000
038000F000
038000E000
038001E000
038003C000
0380038000
0380078000
03800F00F0
03800E00F0
03801E01F0
03801C03F0
FFFC3C0770
FFFC780770
FFFC700E70
0000F01E70
0001E01C70
0001C03870
0003C07070
0003807070
000780E070
000F01C070
000E01FFFE
001E01FFFE
003C01FFFE
0038000070
0078000070
0070000070
00F0000070
ENDCHAR
STARTCHAR 00BD
ENCODING 189
SWIDTH 836 0
DWIDTH 43 0
BBX 40 48 1 -13
BITMAP
0F80000780
1F80000700
7F80000F00
F780001E00
C780001C00
8780003C00
0780007800
0780007000
078000F000
078000E000
078001E000
078003C000
0780038000
07800781E0
07800F0FFC
07800F1FFE
07801E3C1E
07801C380E
FFFC3C780F
FFFC78000F
FFFC70000F
0000F0000E
0001E0001E
0001E0003C
0003C00078
00038001F0
00078003E0
000F0007C0
000E000F80
001E000F00
003C000F00
003C000E00
0078001E00
0070001C00
00F0001C00
0000001C00
0000001C00
0000001800
0000001800
0000001FFF
0000003FFF
0000003FFF
0000003FFF
0000003FFF
0000003FFF
0000003FFF
0000003FFF
0000007FFF
ENDCHAR
STARTCHAR 00BE
ENCODING 190
SWIDTH 836 0
DWIDTH 43 0
BBX 38 35 2 0
BITMAP
0FF0000700
3FF8000F00
7C7C001E00
701C001C00
F01E003C00
301E003800
001C007800
001C00F000
007800E000
07F001E000
07F003C000
07FC038000
001C078000
001E070000
000E0F01E0
600E1E01E0
E01E1C03E0
F01E3C07E0
7C7C780EE0
3FF8700EE0
1FF0F01CE0
0000E03CE0
0001E038E0
0003C070E0
000380E0E0
000780E0E0
000F01C0E0
000E0380E0
001E03FFFC
001C03FFFC
003C03FFFC
00780000E0
00700000E0
00F00000E0
01E00000E0
ENDCHAR
STARTCHAR 00BF
ENCODING 191
SWIDTH 603 0
DWIDTH 31 0
BBX 25 36 3 -9
BITMAP
001F0000
001F0000
001F0000
001F0000
001F0000
00000000
00000000
00000000
00000000
001F0000
001F0000
001E0000
003E0000
003E0000
007C0000
01F80000
03F00000
07E00000
0FC00000
1F000000
3E000000
7C000000
78000000
F8000000
F8000000
F8000F80
F8000F00
F8001F00
78001F00
7C003E00
7E007E00
3FE3FC00
1FFFF800
0FFFF000
03FFC000
007E0000
ENDCHAR
STARTCHAR 00C0
ENCODING 192
SWIDTH 661 0
DWIDTH 34 0
BBX 33 38 1 1
BITMAP
001FF00000
0000000000
0000000000
0000000000
0000000000
0000000000
0000000000
0000000000
0001000000
0001800000
0001800000
0001800000
0003C00000
0003C00000
0007E00000
000FF00000
001FF80000
003FFC0000
FFC01FF000
00000FF000
00000FF800
000007F800
000003F800
000003F800
000001FC00
000000FC00
0000007C00
0000007C00
0000003E00
0000001E00
0000001E00
0000000E00
0000000600
0000000700
0000000300
0000000100
0000000100
0000000080
ENDCHAR
STARTCHAR 00C1
ENCODING 193
SWIDTH 661 0
DWIDTH 34 0
BBX 33 38 1 1
BITMAP
0007FC0000
0000000000
0000000000
0000000000
0000000000
0000000000
0000000000
0000000000
0001000000
0001800000
0001800000
0001800000
0003C00000
0003C00000
0007E00000
000FF00000
001FF80000
003FFC0000
FFC01FF000
00000FF000
00000FF800
000007F800
000003F800
000003F800
000001FC00
000000FC00
0000007C00
0000007C00
0000003E00
0000001E00
0000001E00
0000000E00
0000000600
0000000700
0000000300
0000000100
0000000100
0000000080
ENDCHAR
STARTCHAR 00C2
ENCODING 194
SWIDTH 661 0
DWIDTH 34 0
BBX 33 45 1 1
BITMAP
0003E00000
0007F00000
000FF80000
001FFC0000
003FFC0000
007FFE0000
007FFF0000
00F0070000
0000000000
0000000000
0000000000
0000000000
0000000000
0000000000
0000000000
0001000000
0001800000
0001800000
0001800000
0003C00000
0003C00000
0007E00000
000FF00000
001FF80000
003FFC0000
FFC01FF000
00000FF000
00000FF800
000007F800
000003F800
000003F800
000001FC00
000000FC00
0000007C00
0000007C00
0000003E00
0000001E00
0000001E00
0000000E00
0000000600
0000000700
0000000300
0000000100
0000000100
0000000080
ENDCHAR
STARTCHAR 00C3
ENCODING 195
SWIDTH 661 0
DWIDTH 34 0
BBX 33 44 1 1
BITMAP
003E018000
007F838000
00FFE78000
00E3FF0000
00C0FF0000
01C03C0000
0000000000
0000000000
0000000000
0000000000
0000000000
0000000000
0000000000
0000000000
0001000000
0001800000
0001800000
0001800000
0003C00000
0003C00000
0007E00000
000FF00000
001FF80000
003FFC0000
FFC01FF000
00000FF000
00000FF800
000007F800
000003F800
000003F800
000001FC00
000000FC00
0000007C00
0000007C00
0000003E00
0000001E00
0000001E00
0000000E00
0000000600
0000000700
0000000300
0000000100
0000000100
0000000080
ENDCHAR
STARTCHAR 00C4
ENCODING 196
SWIDTH 661 0
DWIDTH 34 0
BBX 33 43 1 1
BITMAP
00001E0000
00781E0000
00781E0000
00781E0000
00781E0000
0078000000
0000000000
0000000000
0000000000
0000000000
0000000000
0000000000
0000000000
0001000000
0001800000
0001800000
0001800000
0003C00000
0003C00000
0007E00000
000FF00000
001FF80000
003FFC0000
FFC01FF000
00000FF000
00000FF800
000007F800
000003F800
000003F800
000001FC00
000000FC00
0000007C00
0000007C00
0000003E00
0000001E00
0000001E00
0000000E00
0000000600
0000000700
0000000300
0000000100
0000000100
0000000080
ENDCHAR
STARTCHAR 00C5
ENCODING 197
SWIDTH 661 0
DWIDTH 34 0
BBX 33 43 1 1
BITMAP
0003E00000
000FF00000
001FF80000
001C1C0000
00381C0000
00380C0000
00380C0000
00381C0000
001C380000
001FF80000
000FE00000
0003C00000
0000000000
0001000000
0001800000
0001800000
0001800000
0003C00000
0003C00000
0007E00000
000FF00000
001FF80000
003FFC0000
FFC01FF000
00000FF000
00000FF800
000007F800
000003F800
000003F800
000001FC00
000000FC00
0000007C00
0000007C00
0000003E00
0000001E00
0000001E00
0000000E00
0000000600
0000000700
0000000300
0000000100
0000000100
0000000080
ENDCHAR
STARTCHAR 00C6
ENCODING 198
SWIDTH 992 0
DWIDTH 51 0
BBX 48 35 1 0
BITMAP
0000FFFFFFFE
0000FFFFFFFE
0001FFFFFFFE
0001FFFFFFFE
0003E1F00000
0003E1F00000
0007C1F00000
0007C1F00000
000F81F00000
000F81F00000
000F01F00000
001F01F00000
001E01F00000
003E01F00000
003C01F00000
007C01FFFFF8
007801FFFFF8
00F801FFFFF8
00F001FFFFF8
01F001F00000
01F001F00000
03FFFFF00000
03FFFFF00000
07FFFFF00000
07FFFFF00000
0F8001F00000
0F8001F00000
1F0001F00000
1F0001F00000
3E0001F00000
3E0001F00000
7C0001FFFFFF
7C0001FFFFFF
F80001FFFFFF
F80001FFFFFF
ENDCHAR
STARTCHAR 00C7
ENCODING 199
SWIDTH 720 0
DWIDTH 37 0
BBX 32 44 3 -11
BITMAP
01FF0000
07F1FFE0
0FE1C1F8
1F83E0FC
3F03E07E
3E03E03E
7E07E01C
7C07F000
7C07F000
F807F000
F80FF000
F80FF000
F80FF000
F00FF000
F00FF800
F01FF800
F01FF800
F81FF800
F81FF800
F81FF800
F83FF800
F83FFC00
7C3FFC00
7C3FFC1C
7E7FFC1F
3F7FFC3E
3FFFFE7E
1FFFFEFC
0FFFFFF8
07FFFFF0
03FFFFE0
00FFFF80
003FFE00
0001C000
0001C000
00018000
0003F800
0003FC00
00003C00
00001C00
00003C00
0004FC00
0007F800
0007E000
ENDCHAR
STARTCHAR 00C8
ENCODING 200
SWIDTH 661 0
DWIDTH 34 0
BBX 28 44 4 0
BITMAP
01F80000
00F80000
007C0000
001E0000
000F0000
00038000
00000000
00000000
00000000
FFFFFFE0
FFFFFFE0
FFFFFFE0
FFFFFFE0
F8000000
F8000000
F8000000
F8000000
F8000000
F8000000
F8000000
F8000000
F8000000
F8000000
F8000000
FFFFFF80
FFFFFF80
FFFFFF80
FFFFFF80
F8000000
F8000000
F8000000
F8000000
F8000000
F8000000
F8000000
F8000000
F8000000
F8000000
F8000000
F8000000
FFFFFFF0
FFFFFFF0
FFFFFFF0
FFFFFFF0
ENDCHAR
STARTCHAR 00C9
ENCODING 201
SWIDTH 661 0
DWIDTH 34 0
BBX 28 44 4 0
BITMAP
0003F000
0003E000
0007C000
000F0000
001E0000
00380000
00000000
00000000
00000000
FFFFFFE0
FFFFFFE0
FFFFFFE0
FFFFFFE0
F8000000
F8000000
F8000000
F8000000
F8000000
F8000000
F8000000
F8000000
F8000000
F8000000
F8000000
FFFFFF80
FFFFFF80
FFFFFF80
FFFFFF80
F8000000
F8000000
F8000000
F8000000
F8000000
F8000000
F8000000
F8000000
F8000000
F8000000
F8000000
F8000000
FFFFFFF0
FFFFFFF0
FFFFFFF0
FFFFFFF0
ENDCHAR
STARTCHAR 00CA
ENCODING 202
SWIDTH 661 0
DWIDTH 34 0
BBX 28 45 4 0
BITMAP
001F0000
003F8000
007FC000
00FBE000
01F1F000
03C07800
07003800
00000000
00000000
00000000
FFFFFFE0
FFFFFFE0
FFFFFFE0
FFFFFFE0
F8000000
F8000000
F8000000
F8000000
F8000000
F8000000
F8000000
F8000000
F8000000
F8000000
F8000000
FFFFFF80
FFFFFF80
FFFFFF80
FFFFFF80
F8000000
F8000000
F8000000
F8000000
F8000000
F8000000
F8000000
F8000000
F8000000
F8000000
F8000000
F8000000
FFFFFFF0
FFFFFFF0
FFFFFFF0
FFFFFFF0
ENDCHAR
STARTCHAR 00CB
ENCODING 203
SWIDTH 661 0
DWIDTH 34 0
BBX 28 43 4 0
BITMAP
03C0F000
03C0F000
03C0F000
03C0F000
03C0F000
00000000
00000000
00000000
FFFFFFE0
FFFFFFE0
FFFFFFE0
FFFFFFE0
F8000000
F8000000
F8000000
F8000000
F8000000
F8000000
F8000000
F8000000
F8000000
F8000000
F8000000
FFFFFF80
FFFFFF80
FFFFFF80
FFFFFF80
F8000000
F8000000
F8000000
F8000000
F8000000
F8000000
F8000000
F8000000
F8000000
F8000000
F8000000
F8000000
FFFFFFF0
FFFFFFF0
FFFFFFF0
FFFFFFF0
ENDCHAR
STARTCHAR 00CC
ENCODING 204
SWIDTH 272 0
DWIDTH 14 0
BBX 10 44 1 0
BITMAP
FC00
7C00
3E00
0F00
0780
01C0
0000
0000
0000
0F00
0F00
0F00
0F00
0F00
0F00
0F00
0F00
0F00
0F00
0F00
0F00
0F00
0F00
0F00
0F00
0F00
0F00
0F00
0F00
0F00
0F00
0F00
0F00
0F00
0F00
0F00
0F00
0F00
0F00
0F00
0F00
0F00
0F00
0F00
ENDCHAR
STARTCHAR 00CD
ENCODING 205
SWIDTH 272 0
DWIDTH 14 0
BBX 10 44 4 0
BITMAP
0FC0
0F80
1F00
3C00
7800
E000
0000
0000
0000
7800
7800
7800
7800
7800
7800
7800
7800
7800
7800
7800
7800
7800
7800
7800
7800
7800
7800
7800
7800
7800
7800
7800
7800
7800
7800
7800
7800
7800
7800
7800
7800
7800
7800
7800
ENDCHAR
STARTCHAR 00CE
ENCODING 206
SWIDTH 272 0
DWIDTH 14 0
BBX 16 45 -1 0
BITMAP
03E0
07F0
0FF8
1F7C
3E3E
780F
E007
0000
0000
0000
03C0
03C0
03C0
03C0
03C0
03C0
03C0
03C0
03C0
03C0
03C0
03C0
03C0
03C0
03C0
03C0
03C0
03C0
03C0
03C0
03C0
03C0
03C0
03C0
03C0
03C0
03C0
03C0
03C0
03C0
03C0
03C0
03C0
03C0
03C0
ENDCHAR
STARTCHAR 00CF
ENCODING 207
SWIDTH 272 0
DWIDTH 14 0
BBX 14 43 0 0
BITMAP
F03C
F03C
F03C
F03C
F03C
0000
0000
0000
0780
0780
0780
0780
0780
0780
0780
0780
0780
0780
0780
0780
0780
0780
0780
0780
0780
0780
0780
0780
0780
0780
0780
0780
0780
0780
0780
0780
0780
0780
0780
0780
0780
0780
0780
ENDCHAR
STARTCHAR 00D0
ENCODING 208
SWIDTH 720 0
DWIDTH 37 0
BBX 34 35 0 0
BITMAP
0FFFFC0000
0FFFFF8000
0FFFFFE000
0FFFFFF000
0F8007FC00
0F8000FE00
0F80007E00
0F80003F00
0F80001F80
0F80000F80
0F80000F80
0F800007C0
0F800007C0
0F800007C0
0F800007C0
FFFFE003C0
FFFFE003C0
FFFFE003C0
FFFFE003C0
0F800007C0
0F800007C0
0F800007C0
0F800007C0
0F800007C0
0F80000F80
0F80000F80
0F80001F00
0F80003F00
0F80007E00
0F8000FC00
0F8007F800
0FFFFFF000
0FFFFFE000
0FFFFF8000
0FFFFC0000
ENDCHAR
STARTCHAR 00D1
ENCODING 209
SWIDTH 720 0
DWIDTH 37 0
BBX 29 45 4 0
BITMAP
00700600
01FC0600
01FF0E00
03FFFE00
038FFC00
0303FC00
0700F000
00000000
00000000
00000000
FC0000F8
FE0000F8
FE0000F8
FF0000F8
FF8000F8
FF8000F8
F7C000F8
F3C000F8
F3E000F8
F1F000F8
F0F000F8
F0F800F8
F07C00F8
F07C00F8
F03E00F8
F01F00F8
F01F00F8
F00F80F8
F00780F8
F007C0F8
F003E0F8
F003E0F8
F001F0F8
F000F8F8
F000F8F8
F0007CF8
F0003CF8
F0003E78
F0001F78
F0001F78
F0000FF8
F00007F8
F00007F8
F00003F8
F00001F8
ENDCHAR
STARTCHAR 00D2
ENCODING 210
SWIDTH 778 0
DWIDTH 40 0
BBX 35 44 2 0
BITMAP
000FC00000
0007C00000
0003E00000
0000F00000
0000780000
00001C0000
0000000000
0000000000
0000600000
001FFF8000
007FFFE000
01FFFFF800
03FE0FFC00
07F000FE00
0FC0007F00
1F80001F00
1F00001F80
3E00000F80
3E000007C0
7C000007C0
7C000003E0
7C000003E0
7C000003E0
78000003E0
F8000003E0
F8000003E0
F8000003E0
F8000003E0
78000003E0
78000003E0
7C000003E0
7C000003E0
7C000007C0
7E000007C0
3E000007C0
3F00000F80
1F00001F80
1F80001F00
0FC0007E00
07F000FE00
03FF1FFC00
01FFFFF000
007FFFE000
001FFF0000
ENDCHAR
STARTCHAR 00D3
ENCODING 211
SWIDTH 778 0
DWIDTH 40 0
BBX 35 44 2 0
BITMAP
00003F0000
00003E0000
00007C0000
0000F00000
0001E00000
0003800000
0000000000
0000000000
0000600000
001FFF8000
007FFFE000
01FFFFF800
03FE0FFC00
07F000FE00
0FC0007F00
1F80001F00
1F00001F80
3E00000F80
3E000007C0
7C000007C0
7C000003E0
7C000003E0
7C000003E0
78000003E0
F8000003E0
F8000003E0
F8000003E0
F8000003E0
78000003E0
78000003E0
7C000003E0
7C000003E0
7C000007C0
7E000007C0
3E000007C0
3F00000F80
1F00001F80
1F80001F00
0FC0007E00
07F000FE00
03FF1FFC00
01FFFFF000
007FFFE000
001FFF0000
ENDCHAR
STARTCHAR 00D4
ENCODING 212
SWIDTH 778 0
DWIDTH 40 0
BBX 35 45 2 0
BITMAP
0000F80000
0001FC0000
0003FE0000
0007DF0000
000F8F8000
001E03C000
003801C000
0000000000
0000000000
0000600000
001FFF8000
007FFFE000
01FFFFF800
03FE0FFC00
07F000FE00
0FC0007F00
1F80001F00
1F00001F80
3E00000F80
3E000007C0
7C000007C0
7C000003E0
7C000003E0
7C000003E0
78000003E0
F8000003E0
F8000003E0
F8000003E0
F8000003E0
78000003E0
78000003E0
7C000003E0
7C000003E0
7C000007C0
7E000007C0
3E000007C0
3F00000F80
1F00001F80
1F80001F00
0FC0007E00
07F000FE00
03FF1FFC00
01FFFFF000
007FFFE000
001FFF0000
ENDCHAR
STARTCHAR 00D5
ENCODING 213
SWIDTH 778 0
DWIDTH 40 0
BBX 35 45 2 0
BITMAP
000E00C000
003F80C000
003FE1C000
007FFFC000
0071FF8000
00607F8000
00E01E0000
0000000000
0000000000
0000600000
001FFF8000
007FFFE000
01FFFFF800
03FE0FFC00
07F000FE00
0FC0007F00
1F80001F00
1F00001F80
3E00000F80
3E000007C0
7C000007C0
7C000003E0
7C000003E0
7C000003E0
78000003E0
F8000003E0
F8000003E0
F8000003E0
F8000003E0
78000003E0
78000003E0
7C000003E0
7C000003E0
7C000007C0
7E000007C0
3E000007C0
3F00000F80
1F00001F80
1F80001F00
0FC0007E00
07F000FE00
03FF1FFC00
01FFFFF000
007FFFE000
001FFF0000
ENDCHAR
STARTCHAR 00D6
ENCODING 214
SWIDTH 778 0
DWIDTH 40 0
BBX 35 43 2 0
BITMAP
001E078000
001E078000
001E078000
001E078000
001E078000
0000000000
0000000000
0000600000
001FFF8000
007FFFE000
01FFFFF800
03FE0FFC00
07F000FE00
0FC0007F00
1F80001F00
1F00001F80
3E00000F80
3E000007C0
7C000007C0
7C000003E0
7C000003E0
7C000003E0
78000003E0
F8000003E0
F8000003E0
F8000003E0
F8000003E0
78000003E0
78000003E0
7C000003E0
7C000003E0
7C000007C0
7E000007C0
3E000007C0
3F00000F80
1F00001F80
1F80001F00
0FC0007E00
07F000FE00
03FF1FFC00
01FFFFF000
007FFFE000
001FFF0000
ENDCHAR
STARTCHAR 00D7
ENCODING 215
SWIDTH 583 0
DWIDTH 30 0
BBX 22 22 4 6
BITMAP
600010
F00038
F8007C
7C00F8
3E01F0
1F03E0
0F87C0
07CF80
03FF00
01FE00
00FC00
00FC00
01FE00
03FF00
07CF80
0F87C0
1F03E0
3E01F0
7C00F8
F8007C
F0003C
600018
ENDCHAR
STARTCHAR 00D8
ENCODING 216
SWIDTH 778 0
DWIDTH 40 0
BBX 36 38 2 -1
BITMAP
00000001F0
00007003E0
001FFF87C0
007FFFE780
01FFFFFF80
03FE0FFF00
07F000FE00
0FC0007F00
1F8000FF00
1F0000FF80
3E0001FF80
3E0003E7C0
7C0007C7C0
7C000F83E0
7C000F03E0
7C001F03E0
78003E03E0
F8007C03E0
F800F803E0
F801F003E0
F801E003E0
F803E003E0
7807C003E0
7C0F8003E0
7C1F0003E0
7C3E0007C0
7E3C0007C0
3E7C0007C0
3FF8000F80
1FF0001F80
1FE0001F00
0FC0007E00
07F000FE00
0FFF1FFC00
1FFFFFF000
3E7FFFE000
7C1FFF0000
F800000000
ENDCHAR
STARTCHAR 00D9
ENCODING 217
SWIDTH 720 0
DWIDTH 37 0
BBX 29 44 4 0
BITMAP
007E0000
003E0000
001F0000
00078000
0003C000
0000E000
00000000
00000000
00000000
F80000F8
F80000F8
F80000F8
F80000F8
F80000F8
F80000F8
F80000F8
F80000F8
F80000F8
F80000F8
F80000F8
F80000F8
F80000F8
F80000F8
F80000F8
F80000F8
F80000F8
F80000F8
F80000F8
F80000F8
F80000F8
F80000F8
F80000F8
F80000F8
F80000F8
F80000F8
F80001F0
7C0001F0
7E0003E0
3E0007E0
3F801FC0
1FF0FF80
0FFFFF00
03FFFE00
00FFF000
ENDCHAR
STARTCHAR 00DA
ENCODING 218
SWIDTH 720 0
DWIDTH 37 0
BBX 29 44 4 0
BITMAP
0003F000
0003E000
0007C000
000F0000
001E0000
00380000
00000000
00000000
00000000
F80000F8
F80000F8
F80000F8
F80000F8
F80000F8
F80000F8
F80000F8
F80000F8
F80000F8
F80000F8
F80000F8
F80000F8
F80000F8
F80000F8
F80000F8
F80000F8
F80000F8
F80000F8
F80000F8
F80000F8
F80000F8
F80000F8
F80000F8
F80000F8
F80000F8
F80000F8
F80001F0
7C0001F0
7E0003E0
3E0007E0
3F801FC0
1FF0FF80
0FFFFF00
03FFFE00
00FFF000
ENDCHAR
STARTCHAR 00DB
ENCODING 219
SWIDTH 720 0
DWIDTH 37 0
BBX 29 45 4 0
BITMAP
000F8000
001FC000
003FE000
007DF000
00F8F800
01E03C00
03801C00
00000000
00000000
00000000
F80000F8
F80000F8
F80000F8
F80000F8
F80000F8
F80000F8
F80000F8
F80000F8
F80000F8
F80000F8
F80000F8
F80000F8
F80000F8
F80000F8
F80000F8
F80000F8
F80000F8
F80000F8
F80000F8
F80000F8
F80000F8
F80000F8
F80000F8
F80000F8
F80000F8
F80000F8
F80001F0
7C0001F0
7E0003E0
3E0007E0
3F801FC0
1FF0FF80
0FFFFF00
03FFFE00
00FFF000
ENDCHAR
STARTCHAR 00DC
ENCODING 220
SWIDTH 720 0
DWIDTH 37 0
BBX 29 43 4 0
BITMAP
01E07800
01E07800
01E07800
01E07800
01E07800
00000000
00000000
00000000
F80000F8
F80000F8
F80000F8
F80000F8
F80000F8
F80000F8
F80000F8
F80000F8
F80000F8
F80000F8
F80000F8
F80000F8
F80000F8
F80000F8
F80000F8
F80000F8
F80000F8
F80000F8
F80000F8
F80000F8
F80000F8
F80000F8
F80000F8
F80000F8
F80000F8
F80000F8
F80001F0
7C0001F0
7E0003E0
3E0007E0
3F801FC0
1FF0FF80
0FFFFF00
03FFFE00
00FFF000
ENDCHAR
STARTCHAR 00DD
ENCODING 221
SWIDTH 661 0
DWIDTH 34 0
BBX 31 44 2 0
BITMAP
0000FC00
0000F800
0001F000
0003C000
00078000
000E0000
00000000
00000000
00000000
F800007E
F800007C
7C0000F8
7E0001F8
3E0001F0
1F0003E0
1F8007E0
0F8007C0
07C00F80
07C00F80
03E01F00
01F03E00
01F03E00
00F87C00
007CF800
007CF800
003FF000
001FE000
001FE000
000FC000
00078000
00078000
00078000
00078000
00078000
00078000
00078000
00078000
00078000
00078000
00078000
00078000
00078000
00078000
00078000
ENDCHAR
STARTCHAR 00DE
ENCODING 222
SWIDTH 661 0
DWIDTH 34 0
BBX 27 35 4 0
BITMAP
F8000000
F8000000
F8000000
F8000000
F8000000
F8000000
FFFFE000
FFFFFC00
FFFFFE00
FFFFFF80
F8001FC0
F8000FC0
F80007E0
F80003E0
F80003E0
F80003E0
F80001E0
F80001E0
F80003E0
F80003E0
F80003E0
F80007C0
F8000FC0
F8003F80
FFFFFF00
FFFFFE00
FFFFF800
FFFF8000
F8000000
F8000000
F8000000
F8000000
F8000000
F8000000
F8000000
ENDCHAR
STARTCHAR 00DF
ENCODING 223
SWIDTH 603 0
DWIDTH 31 0
BBX 25 37 4 0
BITMAP
01FE0000
0FFFC000
1FFFE000
3FFFF000
7E01F800
7C00F800
F8007800
F8007C00
F0007800
F0007800
F000F800
F001F000
F003F000
F007E000
F00FC000
F00F8000
F00F0000
F00F0000
F00F0000
F00F8000
F00FC000
F007F000
F003F800
F001FC00
F0007E00
F0003F00
F0001F00
F0000F80
F0000780
F0000780
F0000780
F0000F80
F0400F80
F0783F00
F07FFF00
F07FFE00
F03FF800
ENDCHAR
STARTCHAR 00E0
ENCODING 224
SWIDTH 544 0
DWIDTH 28 0
BBX 26 38 2 0
BITMAP
03E00000
03F00000
01F00000
00F80000
003C0000
001E0000
000E0000
00070000
00000000
00000000
00000000
03FFC000
0FFFE000
1FFFF000
1F81F800
3E007C00
3E007C00
7C003C00
00003C00
00003C00
00003C00
00003C00
03FFFC00
0FFFFC00
3FFFFC00
3F003C00
7C003C00
7C003C00
F8003C00
F8007C00
F8007C00
F800FC00
F800FC00
7C03BE00
7E07BE00
7FFF3FC0
3FFE1FC0
0FF80FC0
ENDCHAR
STARTCHAR 00E1
ENCODING 225
SWIDTH 544 0
DWIDTH 28 0
BBX 26 38 2 0
BITMAP
0007C000
000FC000
000F8000
001F0000
003C0000
00780000
00700000
00E00000
00000000
00000000
00000000
03FFC000
0FFFE000
1FFFF000
1F81F800
3E007C00
3E007C00
7C003C00
00003C00
00003C00
00003C00
00003C00
03FFFC00
0FFFFC00
3FFFFC00
3F003C00
7C003C00
7C003C00
F8003C00
F8007C00
F8007C00
F800FC00
F800FC00
7C03BE00
7E07BE00
7FFF3FC0
3FFE1FC0
0FF80FC0
ENDCHAR
STARTCHAR 00E2
ENCODING 226
SWIDTH 544 0
DWIDTH 28 0
BBX 26 37 2 0
BITMAP
00FC0000
01FE0000
01FF0000
03EF8000
0783C000
0F01E000
1C00E000
00000000
00000000
00000000
03FFC000
0FFFE000
1FFFF000
1F81F800
3E007C00
3E007C00
7C003C00
00003C00
00003C00
00003C00
00003C00
03FFFC00
0FFFFC00
3FFFFC00
3F003C00
7C003C00
7C003C00
F8003C00
F8007C00
F8007C00
F800FC00
F800FC00
7C03BE00
7E07BE00
7FFF3FC0
3FFE1FC0
0FF80FC0
ENDCHAR
STARTCHAR 00E3
ENCODING 227
SWIDTH 544 0
DWIDTH 28 0
BBX 26 37 2 0
BITMAP
00801800
03F01800
07FC3800
0FFFF800
0E3FF000
0C0FF000
1C03E000
00000000
00000000
00000000
03FFC000
0FFFE000
1FFFF000
1F81F800
3E007C00
3E007C00
7C003C00
00003C00
00003C00
00003C00
00003C00
03FFFC00
0FFFFC00
3FFFFC00
3F003C00
7C003C00
7C003C00
F8003C00
F8007C00
F8007C00
F800FC00
F800FC00
7C03BE00
7E07BE00
7FFF3FC0
3FFE1FC0
0FF80FC0
ENDCHAR
STARTCHAR 00E4
ENCODING 228
SWIDTH 544 0
DWIDTH 28 0
BBX 26 35 2 0
BITMAP
0781E000
0781E000
0781E000
0781E000
0781E000
00000000
00000000
00000000
03FFC000
0FFFE000
1FFFF000
1F81F800
3E007C00
3E007C00
7C003C00
00003C00
00003C00
00003C00
00003C00
03FFFC00
0FFFFC00
3FFFFC00
3F003C00
7C003C00
7C003C00
F8003C00
F8007C00
F8007C00
F800FC00
F800FC00
7C03BE00
7E07BE00
7FFF3FC0
3FFE1FC0
0FF80FC0
ENDCHAR
STARTCHAR 00E5
ENCODING 229
SWIDTH 544 0
DWIDTH 28 0
BBX 26 41 2 0
BITMAP
003E0000
00FF0000
01FF8000
01C1C000
0381C000
0380C000
0380C000
0381C000
01C3C000
01FF8000
00FF0000
003C0000
00000000
00000000
03FFC000
0FFFE000
1FFFF000
1F81F800
3E007C00
3E007C00
7C003C00
00003C00
00003C00
00003C00
00003C00
03FFFC00
0FFFFC00
3FFFFC00
3F003C00
7C003C00
7C003C00
F8003C00
F8007C00
F8007C00
F800FC00
F800FC00
7C03BE00
7E07BE00
7FFF3FC0
3FFE1FC0
0FF80FC0
ENDCHAR
STARTCHAR 00E6
ENCODING 230
SWIDTH 875 0
DWIDTH 45 0
BBX 41 27 2 0
BITMAP
03FF80FFC000
0FFFE3FFF000
1FFFF7FFF800
3F01FFC0FC00
3E00FF803E00
7C007F001F00
7C007E001F00
00007E000F00
00003C000F80
00003C000F80
00003C000F80
03FFFFFFFF80
1FFFFFFFFF80
3FFFFFFFFF80
7F003C000000
FC003C000000
F8003C000000
F8007C000000
F0007E000000
F0007E000000
F000FE000C00
F801FF000F00
F803DF801F00
FC078FC07E00
7FFF07FFFC00
3FFE03FFF800
1FF800FFE000
ENDCHAR
STARTCHAR 00E7
ENCODING 231
SWIDTH 505 0
DWIDTH 26 0
BBX 22 38 2 -11
BITMAP
01FF80
07FFC0
0FFFE0
1F83F0
3E00F8
3C0078
7C007C
78007C
780000
F80000
F80000
F80000
F80000
F80000
F80000
F80000
F80000
F80000
780000
7C007C
7C007C
3E007C
3E00F8
1F83F0
0FFFF0
07FFC0
01FF80
003800
003800
003000
007F00
005F80
000780
000380
000780
00FF00
00FF00
00F800
ENDCHAR
STARTCHAR 00E8
ENCODING 232
SWIDTH 544 0
DWIDTH 28 0
BBX 24 38 2 0
BITMAP
01F000
01F800
00F800
007C00
001E00
000F00
000700
000380
000000
000000
000000
01FF80
07FFE0
0FFFF8
1F81F8
3F007C
3E003E
7C003E
7C001E
78001F
F8001F
F8001F
FFFFFF
FFFFFF
FFFFFF
F80000
F80000
F80000
F80000
780000
7C0000
7C0018
3E001E
3F003E
1F80FC
0FFFF8
07FFF0
01FFC0
ENDCHAR
STARTCHAR 00E9
ENCODING 233
SWIDTH 544 0
DWIDTH 28 0
BBX 24 38 2 0
BITMAP
0003E0
0007E0
0007C0
000F80
001E00
003C00
003800
007000
000000
000000
000000
01FF80
07FFE0
0FFFF8
1F81F8
3F007C
3E003E
7C003E
7C001E
78001F
F8001F
F8001F
FFFFFF
FFFFFF
FFFFFF
F80000
F80000
F80000
F80000
780000
7C0000
7C0018
3E001E
3F003E
1F80FC
0FFFF8
07FFF0
01FFC0
ENDCHAR
STARTCHAR 00EA
ENCODING 234
SWIDTH 544 0
DWIDTH 28 0
BBX 24 37 2 0
BITMAP
007E00
00FF00
00FF80
01F7C0
03C1E0
0780F0
0E0070
000000
000000
000000
01FF80
07FFE0
0FFFF8
1F81F8
3F007C
3E003E
7C003E
7C001E
78001F
F8001F
F8001F
FFFFFF
FFFFFF
FFFFFF
F80000
F80000
F80000
F80000
780000
7C0000
7C0018
3E001E
3F003E
1F80FC
0FFFF8
07FFF0
01FFC0
ENDCHAR
STARTCHAR 00EB
ENCODING 235
SWIDTH 544 0
DWIDTH 28 0
BBX 24 35 2 0
BITMAP
0781E0
0781E0
0781E0
0781E0
0781E0
000000
000000
000000
01FF80
07FFE0
0FFFF8
1F81F8
3F007C
3E003E
7C003E
7C001E
78001F
F8001F
F8001F
FFFFFF
FFFFFF
FFFFFF
F80000
F80000
F80000
F80000
780000
7C0000
7C0018
3E001E
3F003E
1F80FC
0FFFF8
07FFF0
01FFC0
ENDCHAR
STARTCHAR 00EC
ENCODING 236
SWIDTH 272 0
DWIDTH 14 0
BBX 10 38 1 0
BITMAP
F800
FC00
7C00
3E00
0F00
0780
0380
01C0
0000
0000
0000
0F00
0F00
0F00
0F00
0F00
0F00
0F00
0F00
0F00
0F00
0F00
0F00
0F00
0F00
0F00
0F00
0F00
0F00
0F00
0F00
0F00
0F00
0F00
0F00
0F00
0F00
0F00
ENDCHAR
STARTCHAR 00ED
ENCODING 237
SWIDTH 272 0
DWIDTH 14 0
BBX 10 38 4 0
BITMAP
07C0
0FC0
0F80
1F00
3C00
7800
7000
E000
0000
0000
0000
7800
7800
7800
7800
7800
7800
7800
7800
7800
7800
7800
7800
7800
7800
7800
7800
7800
7800
7800
7800
7800
7800
7800
7800
7800
7800
7800
ENDCHAR
STARTCHAR 00EE
ENCODING 238
SWIDTH 272 0
DWIDTH 14 0
BBX 16 37 -1 0
BITMAP
07E0
0FF0
0FF8
1F7C
3C1E
780F
E007
0000
0000
0000
03C0
03C0
03C0
03C0
03C0
03C0
03C0
03C0
03C0
03C0
03C0
03C0
03C0
03C0
03C0
03C0
03C0
03C0
03C0
03C0
03C0
03C0
03C0
03C0
03C0
03C0
03C0
ENDCHAR
STARTCHAR 00EF
ENCODING 239
SWIDTH 272 0
DWIDTH 14 0
BBX 14 35 0 0
BITMAP
F03C
F03C
F03C
F03C
F03C
0000
0000
0000
0780
0780
0780
0780
0780
0780
0780
0780
0780
0780
0780
0780
0780
0780
0780
0780
0780
0780
0780
0780
0780
0780
0780
0780
0780
0780
0780
ENDCHAR
STARTCHAR 00F0
ENCODING 240
SWIDTH 544 0
DWIDTH 28 0
BBX 24 37 2 0
BITMAP
07C038
01F0F8
00FBF0
007FC0
007F00
01FF80
07E7C0
0703E0
0401F0
0001F0
0000F8
000078
00007C
01FFBC
07FFFE
0FFFFE
1F80FE
3E007F
7C003F
7C001F
78001F
F8001F
F8000F
F8000F
F8000F
F8000F
F8000F
F8000F
F8001F
78001F
7C001F
7C003E
3E007E
1F80FC
1FFFF8
07FFF0
01FFC0
ENDCHAR
STARTCHAR 00F1
ENCODING 241
SWIDTH 544 0
DWIDTH 28 0
BBX 22 37 3 0
BITMAP
010030
07E030
0FF870
1FFFF0
1C7FE0
181FE0
3807C0
000000
000000
000000
F87FC0
F9FFF0
FBFFF8
FB81F8
7F00F8
7E007C
7C007C
7C007C
78007C
78003C
78003C
78003C
78003C
78003C
78003C
78003C
78003C
78003C
78003C
78003C
78003C
78003C
78003C
78003C
78003C
78003C
78003C
ENDCHAR
STARTCHAR 00F2
ENCODING 242
SWIDTH 544 0
DWIDTH 28 0
BBX 24 38 2 0
BITMAP
01F000
01F800
00F800
007C00
001E00
000F00
000700
000380
000000
000000
000000
01FFC0
07FFF0
0FFFF8
1F80FC
3E007C
3E003E
7C003E
7C001F
78001F
F8001F
F8001F
F8001F
F8001F
F8000F
F8001F
F8001F
F8001F
F8001F
78001F
7C001E
7C003E
3E003E
3E007C
1F80FC
0FFFF8
07FFE0
01FFC0
ENDCHAR
STARTCHAR 00F3
ENCODING 243
SWIDTH 544 0
DWIDTH 28 0
BBX 24 38 2 0
BITMAP
0003E0
0007E0
0007C0
000F80
001E00
003C00
003800
007000
000000
000000
000000
01FFC0
07FFF0
0FFFF8
1F80FC
3E007C
3E003E
7C003E
7C001F
78001F
F8001F
F8001F
F8001F
F8001F
F8000F
F8001F
F8001F
F8001F
F8001F
78001F
7C001E
7C003E
3E003E
3E007C
1F80FC
0FFFF8
07FFE0
01FFC0
ENDCHAR
STARTCHAR 00F4
ENCODING 244
SWIDTH 544 0
DWIDTH 28 0
BBX 24 37 2 0
BITMAP
007E00
00FF00
00FF80
01F7C0
03C1E0
0780F0
0E0070
000000
000000
000000
01FFC0
07FFF0
0FFFF8
1F80FC
3E007C
3E003E
7C003E
7C001F
78001F
F8001F
F8001F
F8001F
F8001F
F8000F
F8001F
F8001F
F8001F
F8001F
78001F
7C001E
7C003E
3E003E
3E007C
1F80FC
0FFFF8
07FFE0
01FFC0
ENDCHAR
STARTCHAR 00F5
ENCODING 245
SWIDTH 544 0
DWIDTH 28 0
BBX 24 37 2 0
BITMAP
008018
03F018
07FC38
0FFFF8
0E3FF0
0C0FF0
1C03E0
000000
000000
000000
01FFC0
07FFF0
0FFFF8
1F80FC
3E007C
3E003E
7C003E
7C001F
78001F
F8001F
F8001F
F8001F
F8001F
F8000F
F8001F
F8001F
F8001F
F8001F
78001F
7C001E
7C003E
3E003E
3E007C
1F80FC
0FFFF8
07FFE0
01FFC0
ENDCHAR
STARTCHAR 00F6
ENCODING 246
SWIDTH 544 0
DWIDTH 28 0
BBX 24 35 2 0
BITMAP
0781E0
0781E0
0781E0
0781E0
0781E0
000000
000000
000000
01FFC0
07FFF0
0FFFF8
1F80FC
3E007C
3E003E
7C003E
7C001F
78001F
F8001F
F8001F
F8001F
F8001F
F8000F
F8001F
F8001F
F8001F
F8001F
78001F
7C001E
7C003E
3E003E
3E007C
1F80FC
0FFFF8
07FFE0
01FFC0
ENDCHAR
STARTCHAR 00F7
ENCODING 247
SWIDTH 544 0
DWIDTH 28 0
BBX 24 22 2 6
BITMAP
003C00
003C00
003C00
003C00
000000
000000
000000
000000
000000
FFFFFF
FFFFFF
FFFFFF
FFFFFF
000000
000000
000000
000000
000000
003C00
003C00
003C00
003C00
ENDCHAR
STARTCHAR 00F8
ENCODING 248
SWIDTH 603 0
DWIDTH 31 0
BBX 29 29 1 -1
BITMAP
00000078
007FF0F0
01FFFDE0
03FFFFC0
07E03F80
07C00F80
0F801F80
0F801FC0
1F003FC0
1F007BC0
1F00F3C0
1E01E3E0
1E03C3E0
1E07C3E0
1E0F83E0
1E0F03E0
1E1E03E0
1E3C03E0
1F7803C0
1FF007C0
1FF007C0
0FE007C0
0FC00F80
07C00F80
0FE03F00
1FFFFE00
3DFFFC00
7C7FF000
F8000000
ENDCHAR
STARTCHAR 00F9
ENCODING 249
SWIDTH 544 0
DWIDTH 28 0
BBX 22 38 3 0
BITMAP
03E000
03F000
01F000
00F800
003C00
001E00
000E00
000700
000000
000000
000000
F8007C
F8007C
F8007C
F8007C
F8007C
F8007C
F8007C
F8007C
F8007C
F8007C
F8007C
F8007C
F8007C
F8007C
F8007C
F8007C
F8007C
F8007C
F8007C
F8007C
F800FC
7800FC
7C01BC
7E07BC
3FFF3C
1FFE3C
0FFC3C
ENDCHAR
STARTCHAR 00FA
ENCODING 250
SWIDTH 544 0
DWIDTH 28 0
BBX 22 38 3 0
BITMAP
0007C0
000FC0
000F80
001F00
003C00
007800
007000
00E000
000000
000000
000000
F8007C
F8007C
F8007C
F8007C
F8007C
F8007C
F8007C
F8007C
F8007C
F8007C
F8007C
F8007C
F8007C
F8007C
F8007C
F8007C
F8007C
F8007C
F8007C
F8007C
F800FC
7800FC
7C01BC
7E07BC
3FFF3C
1FFE3C
0FFC3C
ENDCHAR
STARTCHAR 00FB
ENCODING 251
SWIDTH 544 0
DWIDTH 28 0
BBX 22 37 3 0
BITMAP
00FC00
01FE00
01FF00
03EF80
0783C0
0F01E0
1C00E0
000000
000000
000000
F8007C
F8007C
F8007C
F8007C
F8007C
F8007C
F8007C
F8007C
F8007C
F8007C
F8007C
F8007C
F8007C
F8007C
F8007C
F8007C
F8007C
F8007C
F8007C
F8007C
F800FC
7800FC
7C01BC
7E07BC
3FFF3C
1FFE3C
0FFC3C
ENDCHAR
STARTCHAR 00FC
ENCODING 252
SWIDTH 544 0
DWIDTH 28 0
BBX 22 35 3 0
BITMAP
0F03C0
0F03C0
0F03C0
0F03C0
0F03C0
000000
000000
000000
F8007C
F8007C
F8007C
F8007C
F8007C
F8007C
F8007C
F8007C
F8007C
F8007C
F8007C
F8007C
F8007C
F8007C
F8007C
F8007C
F8007C
F8007C
F8007C
F8007C
F800FC
7800FC
7C01BC
7E07BC
3FFF3C
1FFE3C
0FFC3C
ENDCHAR
STARTCHAR 00FD
ENCODING 253
SWIDTH 505 0
DWIDTH 26 0
BBX 25 49 0 -11
BITMAP
0003E000
0007E000
0007C000
000F8000
001E0000
003C0000
00380000
00700000
00000000
00000000
00000000
F8000F80
78000F80
7C000F00
3C001F00
3E001F00
3E001E00
1E003E00
1F003E00
1F003C00
0F007C00
0F807800
07807800
07C0F800
07C0F000
03C0F000
03E1E000
01E1E000
01E1E000
01F3C000
00F3C000
00F3C000
007F8000
007F8000
007F0000
003F0000
003F0000
001E0000
001E0000
003C0000
003C0000
007C0000
00F80000
00F80000
03F00000
3FE00000
3FC00000
3F800000
1C000000
ENDCHAR
STARTCHAR 00FE
ENCODING 254
SWIDTH 544 0
DWIDTH 28 0
BBX 23 48 3 -11
BITMAP
F80000
F80000
F80000
F80000
F80000
F80000
F80000
F80000
F80000
F80000
F87FC0
F9FFE0
FBFFF0
FF81F8
FF00FC
FE007C
FC003C
FC003E
F8003E
F8003E
F8003E
F8003E
F8003E
F8001E
F8003E
F8003E
F8003E
F8003E
F8003E
FC003E
FC003C
FC007C
FE00FC
FF81F8
FBFFF0
F9FFE0
F8FFC0
F80000
F80000
F80000
F80000
F80000
F80000
F80000
F80000
F80000
F80000
F80000
ENDCHAR
STARTCHAR 00FF
ENCODING 255
SWIDTH 505 0
DWIDTH 26 0
BBX 25 46 0 -11
BITMAP
03C0F000
03C0F000
03C0F000
03C0F000
03C0F000
00000000
00000000
00000000
F8000F80
78000F80
7C000F00
3C001F00
3E001F00
3E001E00
1E003E00
1F003E00
1F003C00
0F007C00
0F807800
07807800
07C0F800
07C0F000
03C0F000
03E1E000
01E1E000
01E1E000
01F3C000
00F3C000
00F3C000
007F8000
007F8000
007F0000
003F0000
003F0000
001E0000
001E0000
003C0000
003C0000
007C0000
00F80000
00F80000
03F00000
3FE00000
3FC00000
3F800000
1C000000
ENDCHAR
STARTCHAR 0131
ENCODING 305
SWIDTH 272 0
DWIDTH 14 0
BBX 4 27 5 0
BITMAP
F0
F0
F0
F0
F0
F0
F0
F0
F0
F0
F0
F0
F0
F0
F0
F0
F0
F0
F0
F0
F0
F0
F0
F0
F0
F0
F0
ENDCHAR
STARTCHAR 0152
ENCODING 338
SWIDTH 992 0
DWIDTH 51 0
BBX 47 35 2 0
BITMAP
001FFFFFFFFC
007FFFFFFFFC
01FFFFFFFFFC
03FFFFFFFFFC
07F007C00000
0FC007C00000
1F8007C00000
1F0007C00000
3E0007C00000
3E0007C00000
7C0007C00000
7C0007C00000
7C0007C00000
7C0007C00000
780007C00000
F80007FFFFF0
F80007FFFFF0
F80007FFFFF0
F80007FFFFF0
780007C00000
780007C00000
7C0007C00000
7C0007C00000
7C0007C00000
7E0007C00000
3E0007C00000
3F0007C00000
1F0007C00000
1F8007C00000
0FE007C00000
07F807C00000
03FFFFFFFFFE
01FFFFFFFFFE
007FFFFFFFFE
000FFFFFFFFE
ENDCHAR
STARTCHAR 0153
ENCODING 339
SWIDTH 934 0
DWIDTH 48 0
BBX 44 27 2 0
BITMAP
01FFC01FF800
07FFF07FFE00
0FFFF8FFFF00
1F80FDF81F80
3F007FE007C0
3E003FC003C0
7C001FC003E0
7C001F8001E0
78001F8001E0
F8000F8001F0
F8000F8001F0
F8000FFFFFF0
F8000FFFFFF0
F8000FFFFFF0
F8000F800000
F8000F800000
F8000F800000
F8000F800000
78001F800000
7C001F800000
7C001FC00180
3E003FC003E0
3E007FE007C0
1F80FDF80FC0
0FFFF8FFFF80
07FFF07FFF00
01FFC01FFC00
ENDCHAR
STARTCHAR 0178
ENCODING 376
SWIDTH 661 0
DWIDTH 34 0
BBX 31 43 2 0
BITMAP
00F03C00
00F03C00
00F03C00
00F03C00
00F03C00
00000000
00000000
00000000
F800007E
F800007C
7C0000F8
7E0001F8
3E0001F0
1F0003E0
1F8007E0
0F8007C0
07C00F80
07C00F80
03E01F00
01F03E00
01F03E00
00F87C00
007CF800
007CF800
003FF000
001FE000
001FE000
000FC000
00078000
00078000
00078000
00078000
00078000
00078000
00078000
00078000
00078000
00078000
00078000
00078000
00078000
00078000
00078000
ENDCHAR
STARTCHAR 02C6
ENCODING 710
SWIDTH 330 0
DWIDTH 17 0
BBX 16 7 0 30
BITMAP
07E0
0FF0
0FF8
1F7C
3C1E
780F
E007
ENDCHAR
STARTCHAR 02DA
ENCODING 730
SWIDTH 330 0
DWIDTH 17 0
BBX 12 12 1 29
BITMAP
0F80
3FC0
7FE0
7070
E070
E030
E030
E070
70F0
7FE0
3FC0
0F00
ENDCHAR
STARTCHAR 02DC
ENCODING 732
SWIDTH 330 0
DWIDTH 17 0
BBX 18 7 -1 30
BITMAP
0400C0
1F80C0
3FE1C0
7FFFC0
71FF80
607F80
E01F00
ENDCHAR
STARTCHAR 2000
ENCODING 8192
SWIDTH 428 0
DWIDTH 22 0
BBX 1 1 0 0
BITMAP
00
ENDCHAR
STARTCHAR 2001
ENCODING 8193
SWIDTH 856 0
DWIDTH 44 0
BBX 1 1 0 0
BITMAP
00
ENDCHAR
STARTCHAR 2002
ENCODING 8194
SWIDTH 428 0
DWIDTH 22 0
BBX 1 1 0 0
BITMAP
00
ENDCHAR
STARTCHAR 2003
ENCODING 8195
SWIDTH 856 0
DWIDTH 44 0
BBX 1 1 0 0
BITMAP
00
ENDCHAR
STARTCHAR 2004
ENCODING 8196
SWIDTH 272 0
DWIDTH 14 0
BBX 1 1 0 0
BITMAP
00
ENDCHAR
STARTCHAR 2005
ENCODING 8197
SWIDTH 214 0
DWIDTH 11 0
BBX 1 1 0 0
BITMAP
00
ENDCHAR
STARTCHAR 2006
ENCODING 8198
SWIDTH 136 0
DWIDTH 7 0
BBX 1 1 0 0
BITMAP
00
ENDCHAR
STARTCHAR 2007
ENCODING 8199
SWIDTH 136 0
DWIDTH 7 0
BBX 1 1 0 0
BITMAP
00
ENDCHAR
STARTCHAR 2008
ENCODING 8200
SWIDTH 97 0
DWIDTH 5 0
BBX 1 1 0 0
BITMAP
00
ENDCHAR
STARTCHAR 2009
ENCODING 8201
SWIDTH 155 0
DWIDTH 8 0
BBX 1 1 0 0
BITMAP
00
ENDCHAR
STARTCHAR 200A
ENCODING 8202
SWIDTH 38 0
DWIDTH 2 0
BBX 1 1 0 0
BITMAP
00
ENDCHAR
STARTCHAR 2010
ENCODING 8208
SWIDTH 330 0
DWIDTH 17 0
BBX 13 4 2 12
BITMAP
FFF8
FFF8
FFF8
FFF8
ENDCHAR
STARTCHAR 2011
ENCODING 8209
SWIDTH 330 0
DWIDTH 17 0
BBX 13 4 2 12
BITMAP
FFF8
FFF8
FFF8
FFF8
ENDCHAR
STARTCHAR 2012
ENCODING 8210
SWIDTH 330 0
DWIDTH 17 0
BBX 13 4 2 12
BITMAP
FFF8
FFF8
FFF8
FFF8
ENDCHAR
STARTCHAR 2013
ENCODING 8211
SWIDTH 544 0
DWIDTH 28 0
BBX 28 4 0 11
BITMAP
FFFFFFF0
FFFFFFF0
FFFFFFF0
FFFFFFF0
ENDCHAR
STARTCHAR 2014
ENCODING 8212
SWIDTH 992 0
DWIDTH 51 0
BBX 51 4 0 11
BITMAP
FFFFFFFFFFFFE0
FFFFFFFFFFFFE0
FFFFFFFFFFFFE0
FFFFFFFFFFFFE0
ENDCHAR
STARTCHAR 2018
ENCODING 8216
SWIDTH 214 0
DWIDTH 11 0
BBX 5 11 3 24
BITMAP
38
70
70
60
E0
E0
F8
F8
F8
F8
F8
ENDCHAR
STARTCHAR 2019
ENCODING 8217
SWIDTH 214 0
DWIDTH 11 0
BBX 5 11 3 24
BITMAP
F8
F8
F8
F8
F8
38
38
38
38
70
70
ENDCHAR
STARTCHAR 201A
ENCODING 8218
SWIDTH 214 0
DWIDTH 11 0
BBX 5 12 3 -7
BITMAP
F8
F8
F8
F8
F8
38
38
38
38
70
70
E0
ENDCHAR
STARTCHAR 201C
ENCODING 8220
SWIDTH 330 0
DWIDTH 17 0
BBX 13 11 2 24
BITMAP
7838
7070
6070
E060
E0E0
E0E0
F8F8
F8F8
F8F8
F8F8
F8F8
ENDCHAR
STARTCHAR 201D
ENCODING 8221
SWIDTH 330 0
DWIDTH 17 0
BBX 13 11 2 24
BITMAP
F8F8
F8F8
F8F8
F8F8
F8F8
3838
3838
3838
7030
7070
E070
ENDCHAR
STARTCHAR 201E
ENCODING 8222
SWIDTH 330 0
DWIDTH 17 0
BBX 13 12 2 -7
BITMAP
F8F8
F8F8
F8F8
F8F8
F8F8
3838
3838
3838
7038
7070
F070
E0E0
ENDCHAR
STARTCHAR 2022
ENCODING 8226
SWIDTH 350 0
DWIDTH 18 0
BBX 14 14 2 10
BITMAP
0780
1FE0
3FF0
7FF8
FFF8
FFFC
FFFC
FFFC
FFFC
FFF8
7FF8
3FF0
1FE0
0F80
ENDCHAR
STARTCHAR 2026
ENCODING 8230
SWIDTH 992 0
DWIDTH 51 0
BBX 37 5 7 0
BITMAP
F800F800F8
F800F800F8
F800F800F8
F800F800F8
F800F800F8
ENDCHAR
STARTCHAR 202F
ENCODING 8239
SWIDTH 155 0
DWIDTH 8 0
BBX 1 1 0 0
BITMAP
00
ENDCHAR
STARTCHAR 2039
ENCODING 8249
SWIDTH 330 0
DWIDTH 17 0
BBX 13 19 2 4
BITMAP
00F8
01F0
03E0
07C0
0F80
1F00
3E00
7C00
F800
F800
F800
7C00
3E00
1F00
0F80
07C0
03E0
01F0
00F8
ENDCHAR
STARTCHAR 203A
ENCODING 8250
SWIDTH 330 0
DWIDTH 17 0
BBX 13 19 2 4
BITMAP
F800
7C00
3E00
1F00
0F80
07C0
03E0
01F0
00F0
0078
00F8
01F0
03E0
07C0
0F80
1F00
3E00
7C00
F800
ENDCHAR
STARTCHAR 2044
ENCODING 8260
SWIDTH 175 0
DWIDTH 9 0
BBX 25 35 -10 0
BITMAP
00000780
00000700
00000F00
00001E00
00001C00
00003C00
00007800
00007000
0000F000
0000E000
0001E000
0003C000
00038000
00078000
000F0000
000F0000
001E0000
001C0000
003C0000
00780000
00700000
00F00000
01E00000
01E00000
03C00000
03800000
07800000
0F000000
0E000000
1E000000
3C000000
3C000000
78000000
70000000
F0000000
ENDCHAR
STARTCHAR 205F
ENCODING 8287
SWIDTH 214 0
DWIDTH 11 0
BBX 1 1 0 0
BITMAP
00
ENDCHAR
STARTCHAR 20AC
ENCODING 8364
SWIDTH 544 0
DWIDTH 28 0
BBX 28 36 0 0
BITMAP
0000E000
001FFC00
003FFF00
00FFFF80
00FC0FC0
01F007E0
03E003E0
03E001E0
03C001E0
07C00000
07C00000
07800000
07800000
7FFFF000
7FFFF000
7FFFE000
0F800000
0F800000
0F800000
0F800000
7FFFF000
7FFFF000
7FFFF000
FF800000
07800000
07800000
07C00000
07C00000
03C001F0
03E001E0
01F003E0
01F807E0
00FE0FC0
007FFF80
003FFF00
000FFC00
ENDCHAR
STARTCHAR 2122
ENCODING 8482
SWIDTH 992 0
DWIDTH 51 0
BBX 40 19 5 16
BITMAP
FFFF1F001F
FFFF1F001F
FFFF1F801F
03801F803F
03801FC03F
03801DC077
03801DC077
03801CE077
03801CE0E7
03801CF0E7
03801C71C7
03801C71C7
03801C39C7
03801C3B87
03801C3B87
03801C1F07
03801C1F07
03801C0F07
03801C0E07
ENDCHAR
STARTCHAR E000
ENCODING 57344
SWIDTH 525 0
DWIDTH 27 0
BBX 27 27 0 0
BITMAP
FFFFFFE0
FFFFFFE0
FFFFFFE0
FFFFFFE0
FFFFFFE0
FFFFFFE0
FFFFFFE0
FFFFFFE0
FFFFFFE0
FFFFFFE0
FFFFFFE0
FFFFFFE0
FFFFFFE0
FFFFFFE0
FFFFFFE0
FFFFFFE0
FFFFFFE0
FFFFFFE0
FFFFFFE0
FFFFFFE0
FFFFFFE0
FFFFFFE0
FFFFFFE0
FFFFFFE0
FFFFFFE0
FFFFFFE0
FFFFFFE0
ENDCHAR
ENDFONT
